<?xml version="1.0" encoding="UTF-8"?>
<svg viewBox="0 0 302 167" xmlns="http://www.w3.org/2000/svg">
 <path d="m0 0v167h43l15-2-2 1v-1l6-14-8 2 6-13c-0.6926 0-3.5028-0.414-4 0-2.7362 2.28-22.102 15.407-21 11l-10 3-1-2 9-9-12.418 5.748 4.4197-6.081 19.998-12.667-2-2c2.7208-3.867 8.1563-7.792 7.7932-12.995-0.3765-5.396-5.5135-5.941-9.7932-6.584-11.061-1.66-21.265-2.645-32-5.421v-1h17v-1h-2v-1l19 1v-1l-29-5 15-3v-1l-6-5 9 1v-1l-13-5v-1c8.598 0.6842 25.777 8.1566 33.581 2.9722 8.1917-5.4419 5.629-18.262 18.419-19.972l-1-11h1l3 3-10-37c11.361 6.0521 10.446 23.23 21 30l-7-25 6 3-7-17 25 28-1-5 35 4 4-32h1l4 22h1l5-26h-151z" fill="#fff"/>
 <path d="m151 0l-1 7 1-7z" fill="#f7ec70"/>
 <path d="m152 0l3 33h1l1-3h1l1 6c5.168-2.3638 9.129-6.771 15-7.6566 6.098-0.9199 11.326 3.98 16.956 3.4189 5.394-0.5375 8.571-11.442 10.044-15.762l4 2 2-7h1l-4 26c4.984-0.3933 10.037-1.7227 15-0.3866 3.941 1.0611 7.837 5.3252 12 4.9221 5.815-0.5631 13.643-9.1463 17-13.536h1l2 4 5-3 1 5c-9.916 5.3105-8.315 15.716-9.199 25-0.338 3.5479-3.495 9.4033 0.518 11.958 5.337 3.3976 17.53-3.9596 22.681-5.9576l1 2c-3.445 3.1148-19.121 11.512-14 16-1.017 2.5834-2.051 4.5413-4.005 6.5625-5.787 5.9838-19.61 30.51 5e-3 26.438v-1l-3-1v-1c4.172 0.228 9.134 1.866 5 6l6 2v1l-22-4c-4.227 5.931-9.771 8.63-17 9l2 12-2-1v1l2 8h-8l8 17-25-21 2 6c-4.38-1.193-7.55-4.803-12-5.721-5.642-1.165-11.374 0.373-17-1.369-9-2.787-18.249-7.293-27.957-4.337-6.095 1.855-5.866 9.521-12.043 11.427 2.79-15.995-7.946 2.965-10 8l-3 1h-1l2-11h-1l-8 20h190v-167h-150z" fill="#fff"/>
 <path d="m152 2c0.95 7.5185-2.307 27.544 4 32l-2-32h-2m-12 2l4 29h1c0.599-8.4761 1.176-22.436-5-29z" fill="#d3d3d3"/>
 <path d="m152 5v20h1l-1-20z" fill="#b4b4b4"/>
 <path d="m140 7v3h1l-1-3z" fill="#f7ec70"/>
 <path d="m150.33 7.6667l0.334 0.66666-0.334-0.66666z" fill="#e0cf01"/>
 <path d="m151 7l1 23h1l-2-23z" fill="#8f8f90"/>
 <path d="m77 9l2 4-2-4z" fill="#e8e196"/>
 <path d="m150 9v3h1l-1-3z" fill="#9a8f01"/>
 <path d="m140 10l-1 28 6-4-5-24z" fill="#ffed01"/>
 <path d="m149.33 10.667l0.334 0.6666-0.334-0.6666z" fill="#f7ec70"/>
 <path d="m80 11l8 11-8-11z" fill="#b4b4b4"/>
 <path d="m141 11v13h1l-1-13z" fill="#d3ca68"/>
 <path d="m207 11c-0.918 5.0831-8.637 25.578-2 27-1.554-8.9373 7.718-18.813 2-27z" fill="#b4b4b4"/>
 <path d="m79 12l22 38-22-27h-1l14 31-6-10h-1l-2 6 1 4c-8.9203-7.3524-13.558-25.667-19-36h-1c3.1454 13.242 16.032 26.873 11 41l19 2-8-24h1l14 29c-28.303-9.2062-40.856 7.5007-47 33h-1v-11h-19v1l13 2v1h-31v1l38 7v2l-32 1v1l31 8c0.855 18.711 15.174 29.844 32 34l-7 21 15-22-4 22c4.439-2.908 12.021-15.95 10-21 11.4-2.148 22.431-6.206 27-18l16 3-5-8c13.591 7.725 42.054 7.88 39-13h1c9.613 16.033 31.428 10.896 46 7l-2 3c13.974-0.649 16.758-14.261 17-26h1l2 4c7.402-15.122-1.431-27.402-12-38 3.348 1.5331 7.967 3.8205 9-1 6.371-0.8006 0.811-8.5304 0.981-12.134 0.129-2.728 2.38-4.9271 4.019-6.8657l-3-3-7 7v-2l-4 1 4 17h-1c-3.706-15.381-11.832-22.473-28-17l3 6c-10.372-9.9256-37.997-27.467-48-7h5v1c-8.221 0.8929-13.452 7.4523-19 13-2.584-15.978-25.279-8.6522-29 3h-1l9-14v-1l-22.015-2.7963-22.985-29.204z" fill="#ffed01"/>
 <path d="m149 12v5h1l-1-5z" fill="#b8ac03"/>
 <path d="m150 12l1 23h-4v-10h-1c-0.319 7.406-2.453 10.338-8 15l2-20h-1c-0.088 4.2454-0.211 11.268-3.564 14.397-6.092 5.6828-27.086 2.015-33.436-1.3966l2 7-13-12c6.5536 19.759 19.935 8.2175 33 16v1c-4.923 3.5517-7.929 7.9975-9 14h1c4.824-10.967 24.978-19.812 29-3l17-13v-1l-4 1c14.591-20.528 34.339-4.2062 49 6l-3-6c13.739-4.3931 25.637 0.2352 28 16h1c-0.467-22.64-15.743-23.766-34-20l6-19h-1l-7 15h-1l4-15h-1l-6 13c-13.448-5.2157-21.847-4.9302-34 3l-1-3-5 1-3-22z" fill="#010101"/>
 <path d="m206.33 14.667l0.334 0.6666-0.334-0.6666z" fill="#303133"/>
 <path d="m139 16v4h1l-1-4z" fill="#77777a"/>
 <path d="m142 16c0 5.383-1.995 14.762 3 18l-3-18z" fill="#8f8f90"/>
 <path d="m201 16l-1 2h2l-1-2z" fill="#b4b4b4"/>
 <path d="m205.67 16.333l0.666 0.3334-0.666-0.3334z" fill="#8f8f90"/>
 <path d="m63 17l1 1-1-1z" fill="#ffed01"/>
 <path d="m149 17v10h1l-1-10z" fill="#4f4a01"/>
 <path d="m205.33 17.667l0.334 0.6666-0.334-0.6666z" fill="#010101"/>
 <path d="m65 18l6 12h1c-0.6333-4.7658-2.7917-9.5042-7-12z" fill="#b4b4b4"/>
 <path d="m148 18l-1 17h4l-3-17z" fill="#ffed01"/>
 <path d="m200.33 18.667l0.334 0.6666-0.334-0.6666z" fill="#565658"/>
 <path d="m201 25h1l3-7c-4.288 0.7446-4.987 2.9489-4 7z" fill="#d3d3d3"/>
 <path d="m204.67 19.333l0.666 0.3334-0.666-0.3334z" fill="#77777a"/>
 <path d="m143 20v11h1l-1-11z" fill="#b4b4b4"/>
 <path d="m203 21l1 1-1-1z" fill="#77777a"/>
 <path d="m83 22l1 4-4-1 12 12-9-15z" fill="#d3d3d3"/>
 <path d="m87.333 22.667l0.3334 0.6666-0.3334-0.6666z" fill="#9a8f01"/>
 <path d="m146 22v3h1l-1-3z" fill="#77777a"/>
 <path d="m147 22v4h1l-1-4z" fill="#f6ea5d"/>
 <path d="m199 22l-2 11h1c2.275-3.9407 4.071-7.1072 1-11z" fill="#b6ac8e"/>
 <path d="m88 23l15 16-1-3-14-13z" fill="#d3d3d3"/>
 <path d="m88 24l1 1-1-1z" fill="#312d03"/>
 <path d="m138 24v3h1l-1-3z" fill="#8f8f90"/>
 <path d="m66.333 25.667l0.3334 0.6666-0.3334-0.6666z" fill="#b4b4b4"/>
 <path d="m89 25l2 4-2-4z" fill="#4f4a01"/>
 <path d="m196 25l1 1-1-1z" fill="#b6ac8e"/>
 <path d="m67 27l1 1-1-1z" fill="#303133"/>
 <path d="m72 27l2 6h1l-3-6z" fill="#d3d3d3"/>
 <path d="m139 27v7h1l-1-7z" fill="#827801"/>
 <path d="m145 28v3h1l-1-3z" fill="#8f8f90"/>
 <path d="m172 28v1h8l-8-1z" fill="#686766"/>
 <path d="m202 28l-3 11c4.21-0.9022 4.915-7.677 3-11z" fill="#77777a"/>
 <path d="m248 28l-2 3 4 3-2-6z" fill="#d3d3d3"/>
 <path d="m256 28l1 1-1-1z" fill="#77777a"/>
 <path d="m68.333 29.667l0.3334 0.6666-0.3334-0.6666z" fill="#0b1131"/>
 <path d="m137.33 29.667l0.334 0.6666-0.334-0.6666z" fill="#8f8f90"/>
 <path d="m169 29l1 1-1-1z" fill="#b6ac8e"/>
 <path d="m247 29l1 1-1-1z" fill="#b8ac03"/>
 <path d="m255 29l1 1-1-1z" fill="#4f4a01"/>
 <path d="m72 30l3 7h1l-4-7z" fill="#8f8f90"/>
 <path d="m99.667 30.333l0.6663 0.3334-0.6663-0.3334z" fill="#b4b4b4"/>
 <path d="m152.33 30.667l0.334 0.6666-0.334-0.6666z" fill="#565658"/>
 <path d="m157 30l-1 2h2l-1-2z" fill="#b6ac8e"/>
 <path d="m167 30l1 1-1-1z" fill="#8f8f90"/>
 <path d="m186 30l1 1-1-1z" fill="#686766"/>
 <path d="m246 30l1 1-1-1z" fill="#9a8f01"/>
 <path d="m254 30l1 1-1-1z" fill="#312d03"/>
 <path d="m255 30l-4 5h2l-4 7 8-8-2-4z" fill="#d3d3d3"/>
 <path d="m69.333 31.667l0.3334 0.6666-0.3334-0.6666m30.667-0.6667l1 1-1-1z" fill="#010101"/>
 <path d="m165 31l1 1-1-1z" fill="#b6ac8e"/>
 <path d="m193 31l1 1-1-1z" fill="#686766"/>
 <path d="m196 31v4h1l-1-4z" fill="#565658"/>
 <path d="m245 31l1 1-1-1z" fill="#716901"/>
 <path d="m252 31l1 1-1-1z" fill="#afa745"/>
 <path d="m253 31l1 1-1-1z" fill="#303133"/>
 <path d="m101.33 32.667l0.334 0.6666-0.334-0.6666z" fill="#4a4a49"/>
 <path d="m153.33 32.667l0.334 0.6666-0.334-0.6666z" fill="#77777a"/>
 <path d="m156.67 32.333l0.666 0.3334-0.666-0.3334z" fill="#686766"/>
 <path d="m192 32l1 1-1-1z" fill="#77777a"/>
 <path d="m243 32l-1 2 1-2z" fill="#d3ca68"/>
 <path d="m244 32l1 1-1-1z" fill="#312d03"/>
 <path d="m243 36l2 1 4-2-1-3-5 4z" fill="#b4b4b4"/>
 <path d="m247 38l6-6-6 6z" fill="#4a4a49"/>
 <path d="m69.667 33.333l0.6666 0.3334-0.6666-0.3334z" fill="#716901"/>
 <path d="m81.333 33.667l0.3334 0.6666-0.3334-0.6666z" fill="#b6ac8e"/>
 <path d="m96 33l1 1-1-1z" fill="#686766"/>
 <path d="m103 33v1l7 3v-1l-7-3z" fill="#d3d3d3"/>
 <path d="m171 33v1h3l-3-1z" fill="#b8ac03"/>
 <path d="m243 33l1 1-1-1m-173 1l5 22-4-2v6l5-2c-0.0053-7.9999-0.8286-17.53-6-24z" fill="#010101"/>
 <path d="m73 34l4 6-4-6z" fill="#9a8f01"/>
 <path d="m94 34l1 1-1-1z" fill="#827801"/>
 <path d="m104 34l1 1-1-1m32 0l1 1-1-1z" fill="#77777a"/>
 <path d="m158 34l1 1-1-1z" fill="#8f8f90"/>
 <path d="m241 34l1 1-1-1z" fill="#9a8f01"/>
 <path d="m242 34l-9 10 9-10z" fill="#010101"/>
 <path d="m82 35l1 1-1-1z" fill="#0b1131"/>
 <path d="m112 35v1h6l-6-1z" fill="#b6ac8e"/>
 <path d="m127 35v1h6l-6-1z" fill="#8f8f90"/>
 <path d="m144 35l1 1-1-1z" fill="#9a8f01"/>
 <path d="m240 35l1 1-1-1z" fill="#716901"/>
 <path d="m242 35l1 3h1l1-3h-3z" fill="#b6ac8e"/>
 <path d="m247 35l1 1-1-1z" fill="#b8ac03"/>
 <path d="m246 38l1 6h1l5-9-7 3z" fill="#b6ac8e"/>
 <path d="m70.333 36.667l0.3334 0.6666-0.3334-0.6666z" fill="#b4b4b4"/>
 <path d="m82.667 36.333l0.6666 0.3334-0.6666-0.3334z" fill="#9a8f01"/>
 <path d="m90 37l10 12-7-13-3 1z" fill="#b4b4b4"/>
 <path d="m121 36v1h4l-4-1z" fill="#b6ac8e"/>
 <path d="m155 36l1 1-1-1z" fill="#b8ac03"/>
 <path d="m163 36l1 1-1-1z" fill="#716901"/>
 <path d="m208 36v1h3l-3-1z" fill="#8f8f90"/>
 <path d="m217 36v1h3l-3-1z" fill="#77777a"/>
 <path d="m241 36l3 3v-1l-3-2z" fill="#afa745"/>
 <path d="m246 36l1 1-1-1z" fill="#9a8f01"/>
 <path d="m76 37l7 11-7-11z" fill="#b6ac8e"/>
 <path d="m83.333 37.667l0.3334 0.6666-0.3334-0.6666z" fill="#4a4a49"/>
 <path d="m86 37l4 6-4-6z" fill="#b8ac03"/>
 <path d="m103 37v3h1l-1-3z" fill="#8f8f90"/>
 <path d="m138 37v3l2-1v-1l-2-1z" fill="#b8ac03"/>
 <path d="m145.67 37.333l0.666 0.3334-0.666-0.3334z" fill="#9a8f01"/>
 <path d="m139 43h-1l-8-3v2l18 8 9-11c-7.238-2.0331-13.063-2.5-18 4z" fill="#ffed01"/>
 <path d="m151 37v1h3l-3-1z" fill="#827801"/>
 <path d="m155 39h3l-1-2-2 2z" fill="#716901"/>
 <path d="m205 37l1 1-1-1z" fill="#77777a"/>
 <path d="m237 37l1 1-1-1z" fill="#f6ea5d"/>
 <path d="m244 37l1 1-1-1z" fill="#e0cf01"/>
 <path d="m240 61c7.669-1.6736 3.742-10.078 5-16l-4 1 6-9c-12.337 5.8785-4.492 14.191-7 24z" fill="#010101"/>
 <path d="m224 38l1 1-1-1z" fill="#8f8f90"/>
 <path d="m236 38l1 1-1-1z" fill="#b8ac03"/>
 <path d="m71.333 39.667l0.3334 0.6666-0.3334-0.6666z" fill="#b4b4b4"/>
 <path d="m84 39l7 15-7-15z" fill="#010101"/>
 <path d="m113 39v1h3l-3-1z" fill="#716901"/>
 <path d="m128 39v1h5l-5-1z" fill="#b8ac03"/>
 <path d="m235 39l1 1-1-1z" fill="#afa745"/>
 <path d="m73.333 40.667l0.3334 0.6666-0.3334-0.6666z" fill="#4f4a01"/>
 <path d="m76 40l1 4h1l-2-4z" fill="#0b1131"/>
 <path d="m85 40l1 1-1-1m50 0l1 1-1-1z" fill="#9a8f01"/>
 <path d="m212 40v1h6l-6-1m22 0l1 1-1-1z" fill="#827801"/>
 <path d="m241 46h5l1-1v-5l-6 6z" fill="#686766"/>
 <path d="m84.333 41.667l0.3334 0.6666-0.3334-0.6666z" fill="#b6ac8e"/>
 <path d="m101 41l1 1-1-1z" fill="#9a8f01"/>
 <path d="m120 41l1 1-1-1m38.333 0.6667l0.334 0.6666-0.334-0.6666z" fill="#827801"/>
 <path d="m208.67 41.333l0.666 0.3334-0.666-0.3334z" fill="#b8ac03"/>
 <path d="m72.333 42.667l0.3334 0.6666-0.3334-0.6666z" fill="#b4b4b4"/>
 <path d="m78.333 42.667l0.3334 0.6666-0.3334-0.6666z" fill="#716901"/>
 <path d="m86 42l1 1-1-1z" fill="#9a8f01"/>
 <path d="m131 42v1h3l-3-1m7 0l1 1-1-1z" fill="#716901"/>
 <path d="m162.67 42.333l0.666 0.3334-0.666-0.3334z" fill="#b8ac03"/>
 <path d="m229.67 42.333l0.666 0.3334-0.666-0.3334z" fill="#f7ec70"/>
 <path d="m240 42l1 1-1-1z" fill="#827801"/>
 <path d="m89 43l1 1-1-1z" fill="#010101"/>
 <path d="m98 43l2 3-2-3z" fill="#827801"/>
 <path d="m200 43l1 1-1-1z" fill="#9a8f01"/>
 <path d="m246 43l1 1-1-1z" fill="#010101"/>
 <path d="m247 62h1l2-19c-7.826 4.0005-3.162 12.096-3 19z" fill="#b4b4b4"/>
 <path d="m78 44l4 10h1l-5-10z" fill="#010101"/>
 <path d="m79 44l1 1-1-1z" fill="#e0cf01"/>
 <path d="m87 44l1 1-1-1z" fill="#827801"/>
 <path d="m89.667 44.333l0.6666 0.3334-0.6666-0.3334z" fill="#9a8f01"/>
 <path d="m90 45l3 4-3-4z" fill="#312d03"/>
 <path d="m156 45l1 1-1-1m74 0l1 1-1-1z" fill="#716901"/>
 <path d="m73.333 46.667l0.3334 0.6666-0.3334-0.6666z" fill="#b4b4b4"/>
 <path d="m88 46l1 1-1-1z" fill="#716901"/>
 <path d="m100 46v2h2l-2-2z" fill="#9a8f01"/>
 <path d="m127 46v1h6l-6-1z" fill="#827801"/>
 <path d="m142 46l1 1-1-1z" fill="#716901"/>
 <path d="m75.333 47.667l0.3334 0.6666-0.3334-0.6666z" fill="#4f4a01"/>
 <path d="m81.333 47.667l0.3334 0.6666-0.3334-0.6666z" fill="#9a8f01"/>
 <path d="m85 47l-2 3c2.2508-0.4732 3.1178-0.8603 2-3z" fill="#d3d3d3"/>
 <path d="m135.67 47.333l0.666 0.3334-0.666-0.3334z" fill="#716901"/>
 <path d="m194 47c-4.221 2.5835-10.691 7.9729-15.715 8.338-3.136 0.2279-6.184-3.1192-9.285-3.7902-8.861-1.9174-16.526 5.7059-19 13.452h-2c-1.727-3.2589-3.785-5.5887-7.004-7.517-14.365-8.6064-25.522 5.0356-26.826 18.517-0.555 5.7369 2.359 12.578-4.17 15 2.435-13.122-6.663-22.01-20-19.671-14.151 2.4813-40.807 26.121-33 40.671 15.78-5.537 18.984 7.516 32 14l-1 12c16.369-1.292 35.558-9.959 41-27 9.665 5.414 18.544 2.124 23-8 8.207 7.656 19.443 7.664 24-4l4 1 6-2 1-4 7.055 14.419 8.945-2.419 2-9h2l1 16 21-6v-8c-4.675-2.86-3.777-8.0878-4.424-13-1.539-11.682-2.741-24.339-0.576-36-14.684 2.1685-18.559 9.8724-23 23h-1l-6-26z" fill="#010101"/>
 <path d="m206 47l1 1-1-1z" fill="#716901"/>
 <path d="m244 47v5h1l1-5h-2z" fill="#77777a"/>
 <path d="m82.333 48.667l0.3334 0.6666-0.3334-0.6666z" fill="#e0cf01"/>
 <path d="m89 48l1 1-1-1m8 0l2 3-2-3z" fill="#716901"/>
 <path d="m100.33 48.667l0.334 0.6666-0.334-0.6666z" fill="#d3ca68"/>
 <path d="m101 48l1 1-1-1z" fill="#312d03"/>
 <path d="m145 48l1 1-1-1z" fill="#827801"/>
 <path d="m148 48l1 1-1-1z" fill="#716901"/>
 <path d="m74.333 49.667l0.3334 0.6666-0.3334-0.6666z" fill="#686766"/>
 <path d="m92 49c0.6124 2.5869 2.5608 6.1954 2.0177 8.848-1.2467 6.0903-18.075-0.9988-22.018 6.152l29 2v-1l-9-16m10 0l6 13-6-13z" fill="#010101"/>
 <path d="m207 49l1 1-1-1z" fill="#0b1131"/>
 <path d="m80.333 50.667l0.3334 0.6666-0.3334-0.6666z" fill="#9a8f01"/>
 <path d="m188 50l1 1-1-1z" fill="#716901"/>
 <path d="m232 50v3h1l-1-3z" fill="#9a8f01"/>
 <path d="m74 51v4h1l-1-4z" fill="#d3d3d3"/>
 <path d="m76 51v5h1l-1-5z" fill="#716901"/>
 <path d="m99 51l1 1-1-1z" fill="#010101"/>
 <path d="m162.67 51.333l0.666 0.3334-0.666-0.3334z" fill="#827801"/>
 <path d="m169.67 51.333l0.666 0.3334-0.666-0.3334z" fill="#b8ac03"/>
 <path d="m186 51l1 1-1-1z" fill="#9a8f01"/>
 <path d="m191.67 51.333l0.666 0.3334-0.666-0.3334z" fill="#8e060d"/>
 <path d="m70 52v2h2l-2-2z" fill="#b6ac8e"/>
 <path d="m83.333 52.667l0.3334 0.6666-0.3334-0.6666z" fill="#827801"/>
 <path d="m91.333 52.667l0.3334 0.6666-0.3334-0.6666m7.6667-0.6667l2 2v-2h-2z" fill="#716901"/>
 <path d="m160 52l1 1-1-1z" fill="#827801"/>
 <path d="m172 52l1 1-1-1z" fill="#9a8f01"/>
 <path d="m188 55c2.993-0.0642 4.346 0.0539 5-3l-5 3z" fill="#f16a4b"/>
 <path d="m195.33 52.667l0.334 0.6666-0.334-0.6666z" fill="#4f4a01"/>
 <path d="m223 52v15h1l-1-15m-105 1l1 1-1-1z" fill="#716901"/>
 <path d="m145.33 53.667l0.334 0.6666-0.334-0.6666z" fill="#827801"/>
 <path d="m212 53l1 1-1-1z" fill="#716901"/>
 <path d="m241 53v4h1l-1-4z" fill="#9a8f01"/>
 <path d="m245 53v6h1l-1-6z" fill="#303133"/>
 <path d="m101 54l1 1-1-1z" fill="#010101"/>
 <path d="m128 54v1h6l-6-1z" fill="#9a8f01"/>
 <path d="m151 68c7.743-6.2431 11.014-13.009 22-11-8.399-8.5765-19.461 2.4501-22 11z" fill="#f16a4b"/>
 <path d="m181 59c3.787 2.5378 1.609 6.0583 1.065 10-1.166 8.4535-3.064 16.405-3.065 25l5 1 3-18h1l8 27c8.46-0.674 11.607-16.926 14-24h1l2 28 14-3v-4c-9.399-5.4901-4.556-28.502-7.005-37.996-2.169-8.4098-8.473-9.076-12.26-0.9993-1.072 2.286-2.01 4.6428-2.924 6.9954-1.527 3.9297-3.096 7.8438-3.811 12-3.482-7.1128-2.925-17.182-7.303-23.686-3.219-4.7815-10.168-2.1675-12.697 1.686z" fill="#e30713"/>
 <path d="m193.33 54.667l0.334 0.6666-0.334-0.6666z" fill="#8e060d"/>
 <path d="m209 54l1 1-1-1z" fill="#827801"/>
 <path d="m216 55v1l4 9h1v-11l-5 1z" fill="#f16a4b"/>
 <path d="m73.667 55.333l0.6666 0.3334-0.6666-0.3334z" fill="#8f8f90"/>
 <path d="m102 55l2 3-2-3z" fill="#312d03"/>
 <path d="m176 55l1 1-1-1z" fill="#9a8f01"/>
 <path d="m179 55l1 1-1-1z" fill="#716901"/>
 <path d="m231 55v4h1l-1-4z" fill="#b8ac03"/>
 <path d="m246 55l-3 11 1 4h1l1-15z" fill="#8f8f90"/>
 <path d="m94 56v4h1l-1-4z" fill="#827801"/>
 <path d="m124 56l1 1-1-1z" fill="#9a8f01"/>
 <path d="m139 56l1 1-1-1z" fill="#827801"/>
 <path d="m164 56.573c-13.814 3.9173-17.73 21.355-14.622 33.427 1.836 7.1292 6.95 15.617 15.622 13.577 16.039-3.7717 22.758-53.741-1-47.004z" fill="#e30713"/>
 <path d="m196.33 56.667l0.334 0.6666-0.334-0.6666z" fill="#4f4a01"/>
 <path d="m128.67 57.333l0.666 0.3334-0.666-0.3334z" fill="#8e060d"/>
 <path d="m118 73c7.889-5.9178 7.292-15.323 20-13-8.108-10.023-19.573 4.7933-20 13z" fill="#f16a4b"/>
 <path d="m134.67 57.333l0.666 0.3334-0.666-0.3334z" fill="#670309"/>
 <path d="m73 58l3 2-3-2z" fill="#b8ac03"/>
 <path d="m142 58l1 1-1-1z" fill="#716901"/>
 <path d="m76 59v1h9l-9-1m22 0v5h1l-1-5z" fill="#4f4a01"/>
 <path d="m120 73l-3-1c0 11.504-0.476 22.986 8.185 31.895 6.698 6.889 21.928 6.901 23.849-4.895 0.76-4.668-2.999-10.336-3.705-15-1.027-6.7801 3.85-13.913-0.763-19.98-8.601-11.314-22.83-2.5519-24.566 8.9799z" fill="#e30713"/>
 <path d="m152 59l1 1-1-1z" fill="#716901"/>
 <path d="m181 59v1l2 4h1v-5h-3z" fill="#8e060d"/>
 <path d="m232 59l1 1-1-1z" fill="#827801"/>
 <path d="m238.33 59.667l0.334 0.6666-0.334-0.6666z" fill="#f7ec70"/>
 <path d="m245 59l-7 9c4.781-1.1599 9.134-3.4842 7-9z" fill="#686766"/>
 <path d="m71 60l1 2h1l1-2h-3z" fill="#565658"/>
 <path d="m197.33 60.667l0.334 0.6666-0.334-0.6666z" fill="#4f4a01"/>
 <path d="m229 60l2 2v-2h-2z" fill="#9a8f01"/>
 <path d="m239 60l-1 3 1-3z" fill="#8c7871"/>
 <path d="m243 60l-1 5c2.214-1.5501 3.114-2.9971 1-5z" fill="#303133"/>
 <path d="m71 61l-3 2v1c2.348-0.2942 3.951-0.4934 3-3z" fill="#b4b4b4"/>
 <path d="m205 61l1 1-1-1z" fill="#827801"/>
 <path d="m231 61c6.403 11.091 21.193 25.563 8 38v-5h-1c-8e-3 11.901-3.104 24.748-17 26l2-3c-20.111 4.61-28.957 5.234-47-6 2.926 21.638-26.716 17.038-39 12l6 8c-4.456 0.349-13.238-2.352-16.715-0.843-10.556 4.583-14.128 14.767-27.285 15.843v1l15-2-2 12h1c2.319-7.07 4.399-12.943 10-18l-2 12h1c2.999-7.212 11.821-19.149 12-4h1c3.448-20.027 20.672-11.81 34-8.378 6.3 1.622 12.828 0.262 19 1.797 4.411 1.097 7.979 4.581 12 6.581l-5-10 20 16c-4.829-8.364-13.876-19.647-24-21v5l-21-4v-1c12.599-2.915 22.507-11.047 32 2h1l-3-8 10-2 9 15h1l-4-13h1l5 9h1l-5-12 14.907-1.228 7.277-5.794 13.816 3.022v-1l-15-5c1.627-8.595 8.136-21.468 15-27l-4-4 4-2-2-3 15-9v-1c-9.016 2.1366-17.182 9.3589-24 0l-5 1-3-3v-1l3-1v-1l-7-1z" fill="#010101"/>
 <path d="m240 61v1l3 2 1-3h-4z" fill="#565658"/>
 <path d="m150 62l1 1-1-1m81 0l1 1-1-1z" fill="#827801"/>
 <path d="m233 62v1h4l-4-1z" fill="#b8ac03"/>
 <path d="m238 66h4v-4l-4 4z" fill="#d3d3d3"/>
 <path d="m66.667 63.333l0.6666 0.3334-0.6666-0.3334z" fill="#432f27"/>
 <path d="m232 63l1 1-1-1z" fill="#716901"/>
 <path d="m237.33 63.667l0.334 0.6666-0.334-0.6666z" fill="#b6ac8e"/>
 <path d="m28 82v1l26 5v7h1c1.7893-13.277 9.0634-20.157 17-30-15.349-1.03-10.612 13.051-20.147 18.678-6.0547 3.5731-17.198-1.3917-23.853-1.6782z" fill="#010101"/>
 <path d="m67.667 64.333l0.6666 0.3334-0.6666-0.3334z" fill="#8c7871"/>
 <path d="m69 64v1l5 1-5-2z" fill="#432f27"/>
 <path d="m96 64l1 1-1-1z" fill="#9a8f01"/>
 <path d="m149 64l1 1-1-1z" fill="#827801"/>
 <path d="m198.33 64.667l0.334 0.6666-0.334-0.6666z" fill="#4f4a01"/>
 <path d="m235.67 64.333l0.666 0.3334-0.666-0.3334z" fill="#565658"/>
 <path d="m271.67 64.333l0.666 0.3334-0.666-0.3334z" fill="#8f8f90"/>
 <path d="m63 65l1 1-1-1z" fill="#b6ac8e"/>
 <path d="m269 65v5l3-2-3-3z" fill="#d3d3d3"/>
 <path d="m270 65l1 1-1-1z" fill="#303133"/>
 <path d="m62 66l1 1-1-1z" fill="#8f8f90"/>
 <path d="m101.67 66.333l0.666 0.3334-0.666-0.3334z" fill="#0b1131"/>
 <path d="m162.21 67.047c-7.939 4.3056-6.493 29.788 3.564 23.92 7.328-4.2756 6.75-29.514-3.564-23.92z" fill="#010101"/>
 <path d="m196.33 66.667l0.334 0.6666-0.334-0.6666z" fill="#8e060d"/>
 <path d="m203 66l1 1-1-1z" fill="#716901"/>
 <path d="m245 66l3 6-3-6z" fill="#d3d3d3"/>
 <path d="m267.33 66.667l0.334 0.6666-0.334-0.6666z" fill="#686766"/>
 <path d="m268 66l1 1-1-1z" fill="#010101"/>
 <path d="m61 67l1 1-1-1z" fill="#b6ac8e"/>
 <path d="m103.67 67.333l0.666 0.3334-0.666-0.3334z" fill="#b8ac03"/>
 <path d="m223 67v7h1l-1-7z" fill="#4f4a01"/>
 <path d="m243.33 67.667l0.334 0.6666-0.334-0.6666z" fill="#565658"/>
 <path d="m264 67l1 1-1-1z" fill="#8f8f90"/>
 <path d="m147.33 68.667l0.334 0.6666-0.334-0.6666z" fill="#8e060d"/>
 <path d="m265 69v1l4-2-4 1z" fill="#b4b4b4"/>
 <path d="m237 69l1 1-1-1z" fill="#827801"/>
 <path d="m259 69l1 1-1-1z" fill="#77777a"/>
 <path d="m264 69l-4 6 6-5-2-1z" fill="#8f8f90"/>
 <path d="m91 70v1h7l-7-1z" fill="#827801"/>
 <path d="m117.33 70.667l0.334 0.6666-0.334-0.6666z" fill="#8e060d"/>
 <path d="m129.34 71.043c-8.099 4.7841-1.171 30.273 8.428 24.91 8.127-4.541 1.568-30.814-8.428-24.91z" fill="#010101"/>
 <path d="m256 70l1 1-1-1z" fill="#8f8f90"/>
 <path d="m58 71l1 1-1-1z" fill="#b6ac8e"/>
 <path d="m88 71l1 1-1-1z" fill="#9a8f01"/>
 <path d="m114 71v3h1l-1-3z" fill="#827801"/>
 <path d="m164.67 71.333l0.666 0.3334-0.666-0.3334z" fill="#716901"/>
 <path d="m200 71v2l2-2h-2z" fill="#827801"/>
 <path d="m253 71l1 1-1-1z" fill="#b6ac8e"/>
 <path d="m259 77l8-6-8 6z" fill="#d3d3d3"/>
 <path d="m146.33 72.667l0.334 0.6666-0.334-0.6666z" fill="#670309"/>
 <path d="m162 90c6.641-3.4827 5.999-11.388 6-18-9.635 0.7289-9.407 10.92-6 18z" fill="#ffed01"/>
 <path d="m181.33 72.667l0.334 0.6666-0.334-0.6666z" fill="#670309"/>
 <path d="m247 72v1h5l-5-1m-190 1l1 1-1-1z" fill="#8f8f90"/>
 <path d="m83 73l1 1-1-1z" fill="#9a8f01"/>
 <path d="m90.667 73.333l0.6666 0.3334-0.6666-0.3334z" fill="#8e060d"/>
 <path d="m69 90c11.464-4.4342 17.529-14.72 31-15-10.049-6.856-26.846 6.0944-31 15z" fill="#f16a4b"/>
 <path d="m221 73v7h1l-1-7z" fill="#670309"/>
 <path d="m252 77v2l3 1v-3l5-4-8 4z" fill="#686766"/>
 <path d="m62 74l1 1-1-1z" fill="#827801"/>
 <path d="m68 89l-12 16v1l11.385-1.963 26.615 21.963v2c-3.5762 1.437-3.8773 3.286-4 7 12.272-1.661 28.652-11.801 32.976-24 1.645-4.64-4.188-16.403-9.109-17.667-4.129-1.0608-9.02 1.416-12.867 2.6674 1.231-3.0007 2.695-5.9312 3.756-9 7.484-21.65-21.989-7.1875-28.846-1.7724-2.6003 2.0537-4.6623 3.2895-7.9105 3.7724z" fill="#e30713"/>
 <path d="m116 74v10h1l-1-10z" fill="#8e060d"/>
 <path d="m168 74v6h1l-1-6z" fill="#716901"/>
 <path d="m56 75l1 1-1-1z" fill="#8f8f90"/>
 <path d="m113 75v9h1l-1-9z" fill="#e0cf01"/>
 <path d="m148 75v5h1l-1-5z" fill="#8e060d"/>
 <path d="m78 76l1 1-1-1z" fill="#716901"/>
 <path d="m137 95c0.839-2.3013 1.71-4.5314 1.881-7.0015 1.644-23.673-21.403 1.2557-1.881 7.0015z" fill="#ffed01"/>
 <path d="m255 77v1l4-1h-4z" fill="#b6ac8e"/>
 <path d="m130 77l1 1-1-1z" fill="#827801"/>
 <path d="m145 77v9h1l-1-9z" fill="#8e060d"/>
 <path d="m159 77v7h1l-1-7z" fill="#827801"/>
 <path d="m199.33 77.667l0.334 0.6666-0.334-0.6666z" fill="#8e060d"/>
 <path d="m224 78v8h1l-1-8z" fill="#9a8f01"/>
 <path d="m74 79l1 1-1-1z" fill="#827801"/>
 <path d="m255 79l-2 4 2-4z" fill="#b4b4b4"/>
 <path d="m19 80v1l6 1-6-2z" fill="#b6ac8e"/>
 <path d="m110 80l1 1-1-1z" fill="#827801"/>
 <path d="m177 80v3h1l-1-3m33 0v4h1l-1-4z" fill="#8e060d"/>
 <path d="m243.33 80.667l0.334 0.6666-0.334-0.6666z" fill="#827801"/>
 <path d="m25.667 81.333l0.6666 0.3334-0.6666-0.3334z" fill="#565658"/>
 <path d="m27 81v2l2-2h-2z" fill="#8f8f90"/>
 <path d="m54.333 81.667l0.3334 0.6666-0.3334-0.6666z" fill="#565658"/>
 <path d="m128 81v3h1l-1-3z" fill="#9a8f01"/>
 <path d="m138.33 81.667l0.334 0.6666-0.334-0.6666z" fill="#827801"/>
 <path d="m250 82l4 4-6 7 8-9-3-3-3 1z" fill="#686766"/>
 <path d="m25 82l7 4v1l-7 1c3.6613 4.1489 7.7522 3.9965 13 4v-1l-8-2v-1h12v-1l-17-5z" fill="#d3d3d3"/>
 <path d="m33.667 82.333l0.6666 0.3334-0.6666-0.3334z" fill="#b6ac8e"/>
 <path d="m111 82v4h1l-1-4z" fill="#b8ac03"/>
 <path d="m167.33 82.667l0.334 0.6666-0.334-0.6666z" fill="#9a8f01"/>
 <path d="m253 83v1h3l-8 11c4.726-2.7617 9.059-6.4094 10-12h-5z" fill="#d3d3d3"/>
 <path d="m38.667 83.333l0.6666 0.3334-0.6666-0.3334z" fill="#77777a"/>
 <path d="m141 83v8h1l-1-8z" fill="#670309"/>
 <path d="m34.667 84.333l0.6666 0.3334-0.6666-0.3334z" fill="#686766"/>
 <path d="m45 84v1h7l-7-1z" fill="#8f8f90"/>
 <path d="m38.667 85.333l0.6666 0.3334-0.6666-0.3334z" fill="#4a4a49"/>
 <path d="m68 85l1 1-1-1z" fill="#716901"/>
 <path d="m23 86l3 2-3-2z" fill="#f7ec70"/>
 <path d="m41 86v1l4 1-4-2z" fill="#8f8f90"/>
 <path d="m67 86l1 1-1-1m47 0v3h1l-1-3z" fill="#9a8f01"/>
 <path d="m148 86v3h1l-1-3z" fill="#670309"/>
 <path d="m26.667 87.333l0.6666 0.3334-0.6666-0.3334z" fill="#ffed01"/>
 <path d="m45 87v1h3l-3-1z" fill="#565658"/>
 <path d="m56.333 87.667l0.3334 0.6666-0.3334-0.6666z" fill="#b8ac03"/>
 <path d="m222 87v6h1l-1-6z" fill="#8e060d"/>
 <path d="m30 88l1 1-1-1z" fill="#827801"/>
 <path d="m31 88v1l16 3v-1l-16-3z" fill="#010101"/>
 <path d="m53 88v9h1l-1-9z" fill="#827801"/>
 <path d="m86 88v1h4l-4-1z" fill="#8e060d"/>
 <path d="m117.33 88.667l0.334 0.6666-0.334-0.6666z" fill="#670309"/>
 <path d="m38 89v1h3l-3-1z" fill="#827801"/>
 <path d="m78 93l10 11c6.5041-11.199 2.0915-18.866-10-11z" fill="#010101"/>
 <path d="m44.667 90.333l0.6666 0.3334-0.6666-0.3334z" fill="#b8ac03"/>
 <path d="m110 90v1h3l-3-1z" fill="#9a8f01"/>
 <path d="m149.33 90.667l0.334 0.6666-0.334-0.6666m28.667-0.6667v3h1l-1-3z" fill="#8e060d"/>
 <path d="m243 90v3h1l-1-3z" fill="#9a8f01"/>
 <path d="m92 91v5h1l-1-5z" fill="#8e060d"/>
 <path d="m131 91l1 1-1-1z" fill="#827801"/>
 <path d="m211 91v7h1l-1-7z" fill="#8e060d"/>
 <path d="m22 92v1h16l-16-1z" fill="#e8e196"/>
 <path d="m40.667 92.333l0.6666 0.3334-0.6666-0.3334z" fill="#827801"/>
 <path d="m44.667 92.333l0.6666 0.3334-0.6666-0.3334m17.333-0.3333l1 1-1-1z" fill="#9a8f01"/>
 <path d="m83 96v1l3 3h1l3-8-7 4z" fill="#ffed01"/>
 <path d="m162.67 92.333l0.666 0.3334-0.666-0.3334z" fill="#670309"/>
 <path d="m175 92v3h1l-1-3z" fill="#8e060d"/>
 <path d="m14 94v1h11l-11-1z" fill="#b4b4b4"/>
 <path d="m86 93l1 1-1-1z" fill="#716901"/>
 <path d="m137 93l1 1-1-1z" fill="#827801"/>
 <path d="m225 93v3h1l-1-3z" fill="#716901"/>
 <path d="m89.333 94.667l0.3334 0.6666-0.3334-0.6666z" fill="#9a8f01"/>
 <path d="m15 95v1h3l-3-1z" fill="#77777a"/>
 <path d="m18 95v1h3l-3-1z" fill="#010101"/>
 <path d="m21 97l3-2-3 2z" fill="#565658"/>
 <path d="m24 95v1l7 1-7-2z" fill="#8f8f90"/>
 <path d="m29 95v1h6l-6-1m157 0v3h1l-1-3z" fill="#9a8f01"/>
 <path d="m242 95l1 1-1-1z" fill="#827801"/>
 <path d="m247 95l1 1-1-1z" fill="#77777a"/>
 <path d="m23 96v1h4l-4-1z" fill="#010101"/>
 <path d="m27.333 96.667l0.3334 0.6666-0.3334-0.6666z" fill="#565658"/>
 <path d="m31 96v2l2-2h-2z" fill="#4a4a49"/>
 <path d="m33 96v1h5l-5-1z" fill="#010101"/>
 <path d="m38 96l-5 2v1c2.4843-0.1183 5.4878-0.0411 5-3z" fill="#565658"/>
 <path d="m39 96v1h3l-3-1z" fill="#9a8f01"/>
 <path d="m54 96l-1 3 1-3z" fill="#b8ac03"/>
 <path d="m59 96l1 1-1-1z" fill="#716901"/>
 <path d="m194.33 96.667l0.334 0.6666-0.334-0.6666z" fill="#8e060d"/>
 <path d="m239 96l2 3-2-3z" fill="#716901"/>
 <path d="m24 97v1h3l-3-1z" fill="#b4b4b4"/>
 <path d="m28 97v1h3l-3-1z" fill="#010101"/>
 <path d="m31 98v1l6-1h-6z" fill="#8f8f90"/>
 <path d="m39 97v1l8 3-13 1v1c5.6327 0 16.86 2.447 19-4l-14-2z" fill="#010101"/>
 <path d="m45 97v1h3l-3-1z" fill="#716901"/>
 <path d="m183 97l1 1-1-1z" fill="#827801"/>
 <path d="m205 97l1 4h1l-2-4z" fill="#9a8f01"/>
 <path d="m246 97l1 1-1-1z" fill="#686766"/>
 <path d="m37 99v1l10 1v-2h-10z" fill="#b4b4b4"/>
 <path d="m42.667 98.333l0.6666 0.3334-0.6666-0.3334z" fill="#4a4a49"/>
 <path d="m226 98v1h3v4h1v-5h-4z" fill="#9a8f01"/>
 <path d="m246 98l-4 15h1l3-15z" fill="#b4b4b4"/>
 <path d="m87 99l1 1-1-1m89.667 0.3333l0.666 0.3334-0.666-0.3334z" fill="#9a8f01"/>
 <path d="m24 100v1l5 1v-1l-5-1z" fill="#8f8f90"/>
 <path d="m53.333 100.67l0.3334 0.666-0.3334-0.666m2.6667-0.667l1 1-1-1z" fill="#827801"/>
 <path d="m195.33 100.67l0.334 0.666-0.334-0.666z" fill="#670309"/>
 <path d="m237.33 100.67l0.334 0.666-0.334-0.666z" fill="#9a8f01"/>
 <path d="m29 101v1h3l-3-1z" fill="#010101"/>
 <path d="m32 101v1h10l-10-1z" fill="#77777a"/>
 <path d="m9 102v1h3l-3-1z" fill="#f7ec70"/>
 <path d="m12 102v1h9l-9-1z" fill="#ffed01"/>
 <path d="m17 103v1l14-1h-14z" fill="#f6ea5d"/>
 <path d="m31 102v1h3l-3-1m143 0l1 1-1-1z" fill="#9a8f01"/>
 <path d="m237.33 102.67l0.334 0.666-0.334-0.666z" fill="#4f4a01"/>
 <path d="m12 103c2.8203 3.992 9.4022 3.803 14 4v-1l-10-1 1-2h-5z" fill="#d3d3d3"/>
 <path d="m37 103v1h11l-11-1z" fill="#9a8f01"/>
 <path d="m229 103v4h1l-1-4z" fill="#4f4a01"/>
 <path d="m16 104v1l23 3c-3.9414-5.177-16.9-3.999-23-4z" fill="#b6ac8e"/>
 <path d="m26 104v1h4l-4-1z" fill="#d3ca68"/>
 <path d="m196.67 104.33l0.666 0.334-0.666-0.334z" fill="#670309"/>
 <path d="m240 104l-1 9c2.641-2.307 2.296-5.911 1-9z" fill="#565658"/>
 <path d="m241 104v9h1l-1-9z" fill="#8f8f90"/>
 <path d="m95 111c1.2574 1.703 2.3678 3.168 4.0586 4.491 12.103 9.471 15.786-17.134 0.9664-8.506-1.8874 1.098-3.4118 2.568-5.025 4.015z" fill="#010101"/>
 <path d="m39.667 106.33l0.6666 0.334-0.6666-0.334z" fill="#afa745"/>
 <path d="m170 106l1 1-1-1z" fill="#9a8f01"/>
 <path d="m199.67 106.33l0.666 0.334-0.666-0.334z" fill="#b8ac03"/>
 <path d="m207 106v7h1l-1-7m29.333 0.667l0.334 0.666-0.334-0.666z" fill="#827801"/>
 <path d="m39 107v1l8 1-8-2z" fill="#77777a"/>
 <path d="m54 107l1 1-1-1z" fill="#716901"/>
 <path d="m191 107l3 3v-1l-3-2m34.667 0.333l0.666 0.334-0.666-0.334m-119.67 0.667l1 1-1-1z" fill="#9a8f01"/>
 <path d="m107 108l-6 4v2c4.488 1.503 7.604-1.316 6-6z" fill="#ffed01"/>
 <path d="m108.33 108.67l0.334 0.666-0.334-0.666z" fill="#4f4a01"/>
 <path d="m159 108l1 1-1-1m-94 1l1 1-1-1m111 1l1 1-1-1m59 0l1 1-1-1m-133 1l1 1-1-1z" fill="#716901"/>
 <path d="m177 111l1 1-1-1z" fill="#9a8f01"/>
 <path d="m214.67 111.33l0.666 0.334-0.666-0.334m-163.67 0.667l2 2v-2h-2z" fill="#b8ac03"/>
 <path d="m144 112l1 1-1-1z" fill="#9a8f01"/>
 <path d="m234 112l1 1-1-1z" fill="#827801"/>
 <path d="m51 113v3h1l-1-3z" fill="#565658"/>
 <path d="m179 113l1 1-1-1z" fill="#827801"/>
 <path d="m243 113l1 1-1-1z" fill="#8f8f90"/>
 <path d="m251.67 113.33l0.666 0.334-0.666-0.334z" fill="#686766"/>
 <path d="m253 113v1h3l-3-1z" fill="#b4b4b4"/>
 <path d="m52 114l-8 13 7-2-27 27c8.8954-3.838 15.946-11.699 25-15.002 9.5537-3.485 10.78 5.254 9 12.002l6-9 9 3v-1c-11.816-6.83-14.952-16.889-21-28z" fill="#010101"/>
 <path d="m225 116l3-2-3 2z" fill="#9a8f01"/>
 <path d="m253 114v1h4l-4-1z" fill="#010101"/>
 <path d="m252 118h7l-1-4-6 4z" fill="#d3d3d3"/>
 <path d="m232 115l1 1-1-1z" fill="#716901"/>
 <path d="m218 123l2 5h1v-3l23-8c-5.756-3.882-8.214 2.851-13.015 5.312-4.269 2.188-8.475 1.257-12.985 0.688z" fill="#686766"/>
 <path d="m126 116l1 1-1-1m57 0l1 1-1-1z" fill="#716901"/>
 <path d="m223.67 116.33l0.666 0.334-0.666-0.334z" fill="#312d03"/>
 <path d="m231 116l1 1-1-1m-178 1l1 1-1-1m167 0l1 1-1-1z" fill="#827801"/>
 <path d="m237 122l3-4 17 3c-5.978-3.657-16.621-7.064-20 1z" fill="#b4b4b4"/>
 <path d="m254 118l3 2v-1l-3-1z" fill="#303133"/>
 <path d="m49 120l1 1-1-1z" fill="#686766"/>
 <path d="m54 120l1 1-1-1z" fill="#716901"/>
 <path d="m192.67 120.33l0.666 0.334-0.666-0.334m16.333-0.333v1h3l-3-1z" fill="#9a8f01"/>
 <path d="m257.67 120.33l0.666 0.334-0.666-0.334z" fill="#4a4a49"/>
 <path d="m259 120l3 2v-1l-3-1z" fill="#b6ac8e"/>
 <path d="m48 121l1 1-1-1z" fill="#8f8f90"/>
 <path d="m198 121v1h8l-8-1z" fill="#716901"/>
 <path d="m47 122l1 1-1-1z" fill="#8f8f90"/>
 <path d="m83 122l1 1-1-1z" fill="#9a8f01"/>
 <path d="m233 125l4-3-4 3z" fill="#d3d3d3"/>
 <path d="m46 123l1 1-1-1z" fill="#b6ac8e"/>
 <path d="m171 123l1 1-1-1z" fill="#716901"/>
 <path d="m45 124l1 1-1-1z" fill="#b6ac8e"/>
 <path d="m137 124l1 1-1-1z" fill="#716901"/>
 <path d="m200 127l3 7h-1c-6.602-12.577-20.948-6.456-31-2 5.552 6.356 12.547 4.168 20 5v-5c12.868 3.051 18.056 16.848 28 24l-12-20 11 10h1l-9-22-10 3z" fill="#ffed01"/>
 <path d="m224 125v1l9-1h-9m-180 0l1 1-1-1z" fill="#8f8f90"/>
 <path d="m44 127l1 4h1l3-1 2-5-7 2z" fill="#b4b4b4"/>
 <path d="m87 125l1 1-1-1z" fill="#827801"/>
 <path d="m167 125l1 1-1-1z" fill="#9a8f01"/>
 <path d="m187 125l1 1-1-1z" fill="#827801"/>
 <path d="m210 125l1 1-1-1z" fill="#716901"/>
 <path d="m221 125l2 10h1l-1-8h6l-8-2z" fill="#b4b4b4"/>
 <path d="m43 126l1 1-1-1z" fill="#8f8f90"/>
 <path d="m93.333 126.67l0.3334 0.666-0.3334-0.666z" fill="#670309"/>
 <path d="m190.67 126.33l0.666 0.334-0.666-0.334m9.333-0.333v1h3l-3-1z" fill="#716901"/>
 <path d="m216 126l1 7h1l-2-7z" fill="#8f8f90"/>
 <path d="m43 127l1 1-1-1z" fill="#0b1131"/>
 <path d="m88 127l1 1-1-1z" fill="#716901"/>
 <path d="m148 127v1h3l-3-1z" fill="#b8ac03"/>
 <path d="m197 127l1 1-1-1z" fill="#716901"/>
 <path d="m204 127l8 9-8-9z" fill="#010101"/>
 <path d="m211 127l1 1-1-1z" fill="#9a8f01"/>
 <path d="m52 128l-3 5 6-2-1-3h-2z" fill="#ffed01"/>
 <path d="m126.67 128.33l0.666 0.334-0.666-0.334z" fill="#716901"/>
 <path d="m46 129l-5 6 7-6h-2z" fill="#d3d3d3"/>
 <path d="m51 129l1 1-1-1m3 0l1 1-1-1z" fill="#827801"/>
 <path d="m113 129l1 1-1-1z" fill="#9a8f01"/>
 <path d="m142.33 129.67l0.334 0.666-0.334-0.666z" fill="#716901"/>
 <path d="m42 133l3-3-3 3z" fill="#686766"/>
 <path d="m50 130l1 1-1-1z" fill="#716901"/>
 <path d="m89.333 130.67l0.3334 0.666-0.3334-0.666z" fill="#670309"/>
 <path d="m206 130l1 1-1-1m7 0l1 1-1-1z" fill="#716901"/>
 <path d="m218 130l4 12-3-2 1 7-5-3 1 4c10.962-0.868 8.705-12.286 2-18z" fill="#d3d3d3"/>
 <path d="m110 131l1 1-1-1z" fill="#716901"/>
 <path d="m124 131l1 1-1-1m9 0v1h6l-6-1z" fill="#9a8f01"/>
 <path d="m41 132l1 1-1-1z" fill="#010101"/>
 <path d="m87.333 132.67l0.3334 0.666-0.3334-0.666z" fill="#4f4a01"/>
 <path d="m170 132l1 1-1-1z" fill="#716901"/>
 <path d="m214.33 132.67l0.334 0.666-0.334-0.666z" fill="#afa745"/>
 <path d="m38 136l3-3-3 3z" fill="#303133"/>
 <path d="m137 140h1c3.744-4.544 7.453-4.966 13-6-5.541-1.987-12.007 0.458-14 6z" fill="#565658"/>
 <path d="m24 146c7.7252-1.351 14.293-4.605 19-11-6.098-0.02-15.983 5.68-19 11z" fill="#b4b4b4"/>
 <path d="m87 134v3h1l-1-3z" fill="#b8ac03"/>
 <path d="m93.667 134.33l0.6666 0.334-0.6666-0.334z" fill="#670309"/>
 <path d="m139 139c7-3.851 14.217-3 22-3-6.087-2.578-18.395-3.538-22 3z" fill="#8f8f90"/>
 <path d="m153 134v1h7l-7-1z" fill="#686766"/>
 <path d="m203 134l1 1-1-1z" fill="#0b1131"/>
 <path d="m215 134l1 6h1l-2-6z" fill="#8f8f90"/>
 <path d="m30 139v1l8-4-8 3z" fill="#010101"/>
 <path d="m222 135l2 2v-2h-2z" fill="#303133"/>
 <path d="m34 136l1 1-1-1m1 9v2l21-10c-7.4783-3.108-15.143 4.048-21 8z" fill="#77777a"/>
 <path d="m137 147l-4-1c0.396 1.847 1.218 3.816 3.583 2.278 2.695-1.753 2.905-5.808 4.889-8.167 3.074-3.654 8.242-3.111 12.528-3.111-9.101-3.819-15.161 1.234-17 10z" fill="#d3d3d3"/>
 <path d="m154 136v1l13 3c-3.661-4.149-7.752-3.997-13-4z" fill="#b4b4b4"/>
 <path d="m187 136v1h3l-3-1z" fill="#716901"/>
 <path d="m207.67 136.33l0.666 0.334-0.666-0.334m3.333-0.333l2 2v-2h-2z" fill="#9a8f01"/>
 <path d="m35 137l1 1-1-1z" fill="#686766"/>
 <path d="m53 137c-3.2222 5.875-12.038 10.179-18 13l2-3c-5.4632-0.574-9.3589 2.353-12 7l10-4-1 3 25-13-6-3z" fill="#b4b4b4"/>
 <path d="m92.667 137.33l0.6666 0.334-0.6666-0.334z" fill="#9a8f01"/>
 <path d="m195 137l1 4h1v-4h-2z" fill="#686766"/>
 <path d="m201 137l1 1-1-1z" fill="#9a8f01"/>
 <path d="m207 137l6 7-6-7z" fill="#010101"/>
 <path d="m217 137l2 10h1l-3-10z" fill="#b4b4b4"/>
 <path d="m224.33 137.67l0.334 0.666-0.334-0.666z" fill="#77777a"/>
 <path d="m36 148v1c5.8041-1.364 13.852-5.848 17-11l-17 10z" fill="#010101"/>
 <path d="m126 142l7-3c-3.421-1.285-5.306-0.075-7 3z" fill="#686766"/>
 <path d="m166 138v1c7.864 4.405 17.247 3 26 3l-26-4z" fill="#8f8f90"/>
 <path d="m202 138l1 1-1-1z" fill="#716901"/>
 <path d="m29 139l1 1-1-1z" fill="#8f8f90"/>
 <path d="m59 139l1 1-1-1m63 0l-5 8h1l5-3-1-5z" fill="#686766"/>
 <path d="m123 152l11-10c-1.666-7.777-12.4 4.257-11 10z" fill="#b4b4b4"/>
 <path d="m138 139l-2 8 2-8z" fill="#b6ac8e"/>
 <path d="m171.67 139.33l0.666 0.334-0.666-0.334z" fill="#565658"/>
 <path d="m197 139v4h1l2-3-3-1z" fill="#8f8f90"/>
 <path d="m208 139l1 1-1-1z" fill="#827801"/>
 <path d="m211.33 139.67l0.334 0.666-0.334-0.666z" fill="#565658"/>
 <path d="m220 139l2 3-2-3z" fill="#303133"/>
 <path d="m27 141v1l4-1h-4z" fill="#4a4a49"/>
 <path d="m64.667 140.33l0.6666 0.334-0.6666-0.334z" fill="#303133"/>
 <path d="m176 140v1h14l-14-1z" fill="#565658"/>
 <path d="m209 140l1 1-1-1z" fill="#9a8f01"/>
 <path d="m212 140l2 5h3l-5-5z" fill="#b4b4b4"/>
 <path d="m26 141l1 1-1-1m34 7l1 1 7-7c-4.3161-1.396-6.1683 2.617-8 6z" fill="#8f8f90"/>
 <path d="m71 141l1 1-1-1z" fill="#827801"/>
 <path d="m198 141l2 6h1l-1-4 8 5-10-7z" fill="#b4b4b4"/>
 <path d="m25.667 142.33l0.6666 0.334-0.6666-0.334z" fill="#0b1131"/>
 <path d="m47 147l7-5-7 5z" fill="#d3d3d3"/>
 <path d="m62 149l-3-1-2 5 6-1 6-9c-3.9731-0.824-5.5538 2.75-7 6z" fill="#b4b4b4"/>
 <path d="m69.667 142.33l0.6666 0.334-0.6666-0.334z" fill="#303133"/>
 <path d="m72 143v1h4l-4-1z" fill="#4a4a49"/>
 <path d="m174 142v1l16 0.514 12 5.486c-9.2-7.417-16.665-7-28-7z" fill="#d3d3d3"/>
 <path d="m222.33 142.67l0.334 0.666-0.334-0.666z" fill="#565658"/>
 <path d="m23.333 143.67l0.3334 0.666-0.3334-0.666z" fill="#686766"/>
 <path d="m24 143l1 1-1-1z" fill="#010101"/>
 <path d="m66 144c3.7302 9.627-3.1997 14.181-7 23 15.332 0 23.579-1.006 24-19l-17-4z" fill="#fff"/>
 <path d="m70 143l5 3v-1l-5-2m50 0l-2 8h1l3-8h-2z" fill="#d3d3d3"/>
 <path d="m194 143l1 1-1-1z" fill="#686766"/>
 <path d="m211 143l1 1-1-1z" fill="#afa745"/>
 <path d="m22 144l1 1-1-1z" fill="#010101"/>
 <path d="m32 144l1 1-1-1z" fill="#8f8f90"/>
 <path d="m59 144l1 1-1-1z" fill="#77777a"/>
 <path d="m73 144v1c3.6119 1.53 8.076 3.345 11 0l-11-1z" fill="#b4b4b4"/>
 <path d="m76.667 144.33l0.6666 0.334-0.6666-0.334z" fill="#afa745"/>
 <path d="m107 144l1 1-1-1z" fill="#716901"/>
 <path d="m208 144l1 1-1-1z" fill="#827801"/>
 <path d="m212 144l5 5-5-5z" fill="#303133"/>
 <path d="m223 144l1 1-1-1z" fill="#4a4a49"/>
 <path d="m20 145l-1 5 7-4-6-1z" fill="#d3d3d3"/>
 <path d="m21 145l1 1-1-1z" fill="#303133"/>
 <path d="m31 145l1 1-1-1m47 0v1h5l-5-1z" fill="#686766"/>
 <path d="m91.667 145.33l0.6666 0.334-0.6666-0.334z" fill="#9a8f01"/>
 <path d="m101 145v1h3l-3-1z" fill="#b8ac03"/>
 <path d="m113 145l-3 1v1l3 3h1l-1-5z" fill="#686766"/>
 <path d="m118 145l-5 12c3.785-2.317 6.326-7.637 5-12z" fill="#8f8f90"/>
 <path d="m223 145l2 2v-2h-2z" fill="#b6ac8e"/>
 <path d="m19 146l1 1-1-1z" fill="#0b1131"/>
 <path d="m58 146l1 1-1-1z" fill="#8f8f90"/>
 <path d="m65 146l-5 12h1l6-12h-2z" fill="#010101"/>
 <path d="m84.333 146.67l0.3334 0.666-0.3334-0.666z" fill="#d3ca68"/>
 <path d="m89 146l1 1-1-1z" fill="#827801"/>
 <path d="m84 158h1l4-8h1l-2 14h1l4-18c-6.0232 1.282-7.6871 6.472-9 12z" fill="#010101"/>
 <path d="m198 146l1 1-1-1z" fill="#686766"/>
 <path d="m18 147l1 1-1-1z" fill="#8f8f90"/>
 <path d="m67 147v7h1l-1-7m12 0v1l4 3h1v-4h-5z" fill="#d3d3d3"/>
 <path d="m98 153h1l8-5c-4.63-1.867-7.4722 0.652-9 5z" fill="#565658"/>
 <path d="m95 162h1c3.1704-8.71 7.634-13.254 17-14-9.424-3.844-17.542 5.202-18 14z" fill="#8f8f90"/>
 <path d="m121.33 147.67l0.334 0.666-0.334-0.666z" fill="#4a4a49"/>
 <path d="m199.67 147.33l0.666 0.334-0.666-0.334z" fill="#77777a"/>
 <path d="m214 147l1 1-1-1z" fill="#b6ac8e"/>
 <path d="m27 148l1 1-1-1z" fill="#8f8f90"/>
 <path d="m57 148l-2 4 2-4z" fill="#565658"/>
 <path d="m103 149v1l10-1h-10z" fill="#b4b4b4"/>
 <path d="m208 148l10 10-10-10z" fill="#d3d3d3"/>
 <path d="m215.33 148.67l0.334 0.666-0.334-0.666z" fill="#d1c549"/>
 <path d="m35.667 149.33l0.6666 0.334-0.6666-0.334z" fill="#4a4a49"/>
 <path d="m66 149l-5 12 7-12h-2z" fill="#b6ac8e"/>
 <path d="m95 167h14l4-18c-12.025 1.52-15.449 6.057-18 18z" fill="#fff"/>
 <path d="m216 149l3 3-3-3z" fill="#77777a"/>
 <path d="m33.667 150.33l0.6666 0.334-0.6666-0.334z" fill="#0b1131"/>
 <path d="m89 150l-8 17c3.6809-2.511 9.5205-12.611 8-17z" fill="#77777a"/>
 <path d="m125 150l-3 1-2 5 3 1 2-7z" fill="#d3d3d3"/>
 <path d="m25 151l1 1-1-1z" fill="#686766"/>
 <path d="m32 151l1 1-1-1z" fill="#0b1131"/>
 <path d="m120 151v4h1l1-4h-2z" fill="#4a4a49"/>
 <path d="m212 151l1 1-1-1z" fill="#686766"/>
 <path d="m23 152l1 1-1-1z" fill="#303133"/>
 <path d="m54.667 152.33l0.6666 0.334-0.6666-0.334z" fill="#8f8f90"/>
 <path d="m213 152l1 1-1-1z" fill="#686766"/>
 <path d="m217 152l8 10c-1.357-4.612-3.208-8.526-8-10z" fill="#d3d3d3"/>
 <path d="m214 153l1 1-1-1z" fill="#77777a"/>
 <path d="m215 153l3 3-3-3z" fill="#716901"/>
 <path d="m88 154l1 4h1l-2-4z" fill="#8f8f90"/>
 <path d="m92.333 154.67l0.3334 0.666-0.3334-0.666z" fill="#b8ac03"/>
 <path d="m84 155l1 1-1-1z" fill="#827801"/>
 <path d="m111.33 155.67l0.334 0.666-0.334-0.666z" fill="#8f8f90"/>
 <path d="m119 155v3h1l-1-3z" fill="#77777a"/>
 <path d="m87 156l-1 6h1l2-1v-5h-2z" fill="#d3d3d3"/>
 <path d="m217 156l2 2v-2h-2z" fill="#afa745"/>
 <path d="m219.33 156.67l0.334 0.666-0.334-0.666z" fill="#f6ea5d"/>
 <path d="m111.67 157.33l0.666 0.334-0.666-0.334z" fill="#303133"/>
 <path d="m113 157l-3 10c3.834-2.232 4.428-5.78 5-10h-2z" fill="#d3d3d3"/>
 <path d="m220.33 157.67l0.334 0.666-0.334-0.666z" fill="#ffed01"/>
 <path d="m59 158v2l2-2h-2z" fill="#565658"/>
 <path d="m83 158l-1 5h1v-5z" fill="#0b1131"/>
 <path d="m97 158l-4 9 4-9z" fill="#d3d3d3"/>
 <path d="m111.33 158.67l0.334 0.666-0.334-0.666z" fill="#010101"/>
 <path d="m60 159l-1 8 1-8z" fill="#d3d3d3"/>
 <path d="m94 159l-3 8c2.9573-1.962 4.1862-4.574 3-8z" fill="#77777a"/>
 <path d="m221 159l1 1-1-1z" fill="#ffed01"/>
 <path d="m58.333 160.67l0.3334 0.666-0.3334-0.666z" fill="#303133"/>
 <path d="m85 160l-2 7h1l1-7z" fill="#b6ac8e"/>
 <path d="m87 160l-3 7c2.9397-1.716 4.1468-3.666 3-7z" fill="#fff"/>
 <path d="m110.67 160.33l0.666 0.334-0.666-0.334z" fill="#686766"/>
 <path d="m222 160l3 4-3-4z" fill="#e8e196"/>
 <path d="m79.333 161.67l0.3334 0.666-0.3334-0.666z" fill="#f7ec70"/>
 <path d="m88 161l1 1-1-1z" fill="#686766"/>
 <path d="m110.33 161.67l0.334 0.666-0.334-0.666z" fill="#303133"/>
 <path d="m57.333 162.67l0.3334 0.666-0.3334-0.666z" fill="#686766"/>
 <path d="m81.333 163.67l0.3334 0.666-0.3334-0.666z" fill="#0b1131"/>
 <path d="m109 163v4h1l1-4h-2z" fill="#8f8f90"/>
 <path d="m56.333 164.67l0.3334 0.666-0.3334-0.666z" fill="#b4b4b4"/>
 <path d="m87.667 164.33l0.6666 0.334-0.6666-0.334z" fill="#686766"/>
 <path d="m87 165l1 1-1-1z" fill="#010101"/>
 <path d="m88.333 165.67l0.3334 0.666-0.3334-0.666z" fill="#f6ea5d"/>
 <path d="m86.667 166.33l0.6666 0.334-0.6666-0.334z" fill="#77777a"/>
</svg>
