<svg xmlns="http://www.w3.org/2000/svg" width="24" height="24" viewBox="0 0 24 24">
    <path fill="#9da7aa" fill-rule="evenodd" d="M12 2c1.5 0 2.955.331 4.282.96l1.087.517-.706.974C16.233 5.043 16 5.752 16 6.5c0 1.933 1.567 3.5 3.5 3.5.38 0 .75-.06 1.101-.176l1.138-.377.167 1.187c.063.447.094.904.094 1.366 0 5.523-4.477 10-10 10S2 17.523 2 12 6.477 2 12 2zm0 2c-4.418 0-8 3.582-8 8s3.582 8 8 8 8-3.582 8-8l-.001-.025-.203.017L19.5 12C16.462 12 14 9.538 14 6.5c0-.722.14-1.423.404-2.073l.023-.053-.32-.094c-.566-.154-1.151-.246-1.748-.272zm3 10c.552 0 1 .448 1 1s-.448 1-1 1-1-.448-1-1 .448-1 1-1zm-6-1c.552 0 1 .448 1 1s-.448 1-1 1-1-.448-1-1 .448-1 1-1zm1-6c.552 0 1 .448 1 1s-.448 1-1 1-1-.448-1-1 .448-1 1-1z"/>
</svg>
