<svg xmlns="http://www.w3.org/2000/svg" width="88" height="88" viewBox="0 0 88 88">
    <g fill="none" fill-rule="evenodd">
        <path d="M0 0H88V88H0z"/>
        <path fill="#FCBA5F" d="M44.5 8C24.342 8 8 24.342 8 44.5S24.342 81 44.5 81 81 64.658 81 44.5c0-1.688-.115-3.354-.344-4.987l-.609-4.332-4.153 1.375c-1.283.425-2.634.644-4.019.644-7.055 0-12.775-5.72-12.775-12.775 0-2.73.854-5.32 2.419-7.479l2.578-3.556-3.969-1.883C55.285 9.208 49.974 8 44.5 8z"/>
        <circle cx="36.5" cy="29.5" r="3.5" fill="#DF801B"/>
        <circle cx="55.5" cy="54.5" r="3.5" fill="#DF801B"/>
        <circle cx="33.5" cy="51.5" r="3.5" fill="#DF801B"/>
    </g>
</svg>
