<?xml version="1.0"?>
<!--Icons from directory ""-->
<svg xmlns="http://www.w3.org/2000/svg" width="44" height="88" viewBox="0 0 44 88"><svg width="44" height="44" viewBox="0 0 88 88" id="cookie-filled" y="0"><g fill="none" fill-rule="evenodd"><path d="M0 0h88v88H0z"/><path fill="#FCBA5F" d="M44.5 8C24.342 8 8 24.342 8 44.5S24.342 81 44.5 81 81 64.658 81 44.5c0-1.688-.115-3.354-.344-4.987l-.609-4.332-4.153 1.375a12.753 12.753 0 01-4.019.644C64.82 37.2 59.1 31.48 59.1 24.425c0-2.73.854-5.32 2.419-7.479l2.578-3.556-3.969-1.883A36.354 36.354 0 0044.5 8z"/><circle cx="36.5" cy="29.5" r="3.5" fill="#DF801B"/><circle cx="55.5" cy="54.5" r="3.5" fill="#DF801B"/><circle cx="33.5" cy="51.5" r="3.5" fill="#DF801B"/></g></svg><svg width="44" height="44" viewBox="0 0 88 88" id="cookie" y="44"><path fill="#9da7aa" fill-rule="evenodd" d="M12 2c1.5 0 2.955.331 4.282.96l1.087.517-.706.974a3.5 3.5 0 003.938 5.373l1.138-.377.167 1.187c.063.447.094.904.094 1.366 0 5.523-4.477 10-10 10S2 17.523 2 12 6.477 2 12 2zm0 2a8 8 0 108 8l-.001-.025-.203.017L19.5 12a5.5 5.5 0 01-5.096-7.573l.023-.053-.32-.094a7.973 7.973 0 00-1.748-.272zm3 10a1 1 0 110 2 1 1 0 010-2zm-6-1a1 1 0 110 2 1 1 0 010-2zm1-6a1 1 0 110 2 1 1 0 010-2z"/></svg></svg>
