<?xml version="1.0" encoding="utf-8"?>
<!-- Generator: Adobe Illustrator 24.3.0, SVG Export Plug-In . SVG Version: 6.00 Build 0)  -->
<svg version="1.1" id="Capa_1" xmlns="http://www.w3.org/2000/svg" xmlns:xlink="http://www.w3.org/1999/xlink" x="0px" y="0px"
	 viewBox="0 0 497 121" style="enable-background:new 0 0 497 121;" xml:space="preserve">
<style type="text/css">
	.st0{fill:#005E00;}
	.st1{fill:#28C700;}
	.st2{fill:#003E00;}
	.st3{fill:none;}
	.st4{fill:#29C800;}
	.st5{fill:#008800;}
	.st6{fill:#008900;}
	.st7{fill:#008E00;}
	.st8{fill:#008E00;fill-opacity:0.8;}
	.st9{fill:#29C800;fill-opacity:0.8;}
	.st10{fill:none;stroke:#000000;stroke-width:2;stroke-linecap:round;}
	.st11{fill:#ED1C24;}
</style>
<desc>Created with Sketch.</desc>
<g id="Tiles">
	<g id="patch-of-grass" transform="translate(-45.000000, -2.000000)">
		<path id="Path" class="st0" d="M56.4,73.7c4.2-4.6,9.8-8.3,16-9c7.8-0.9,15.6,3,21,8.7s8.9,12.9,11.9,20.1c3.8,9,7,18.8,9.6,28.2
			c2.7,0,8,0,7.9,0c0.6-10.9,1.2-22.1-3.9-31.8c-2-3.9-4.8-7.3-7.7-10.5c-4.1-4.6-8.6-8.9-13.2-12.9c-3.6-3.1-7.4-6-11.8-8
			c-9.4-4.1-21-2.7-29.2,3.6C49.5,68,44.6,78.7,46.2,88.3C50.2,84.6,52.4,78,56.4,73.7z"/>
		<path id="Path_1_" class="st1" d="M111.5,54.2c9.3,13.7,10.6,31.7,12.1,48.4c-1.8,0-0.8,0.1-2.6,0.1c1.1-2.6-1.3-5.6-1.6-8.4
			c-0.5-5-2.6-10-4.8-14.6C107,63.3,98.7,46.2,83.7,36.3c-2-1.3-7.4-4.2-16.2-8.6C86.2,29.6,100.8,38.5,111.5,54.2z"/>
		<path id="Path_2_" class="st2" d="M83,37.7c3.5,2.5,6.7,5.4,9.4,8.8c2.1,2.7,3.9,5.8,5.6,8.8c1.9,3.4,3.8,6.7,5.6,10.2
			c2.3,4.5,4.3,9.2,6.1,13.9c1.4,3.9,6.8,9.6,6.8,8.7c-0.3-14.8-6-29.4-15.7-40.5c-8.4-9.5-21.3-18.3-34.1-20
			C67.5,30.9,79.7,35.2,83,37.7z"/>
		<path id="Path_3_" class="st3" d="M155.2,77.3c-15.6,9.3-27.7,25.5-29,43.6c1.8,0.3,3.6,0.5,5.4,0.8c4.2-11.2,8.5-22.7,16.4-31.7
			c3.2-3.7,7-6.8,11.1-9.6c6.7-4.6,14.1-8.1,21.8-10.4c3.9-1.2,7.8-2.1,11.8-2.6c3.1-0.5,8.4,0.2,10.7-1.7
			C187.3,64.4,168.9,69.1,155.2,77.3z"/>
		<path id="Path_4_" class="st4" d="M92.8,58c2.8,1.2,5.5,2.7,8,4.4c11,7.3,21.1,24.5,20.2,37.7c-3.6-3.3-16.9-25.1-20.7-28.9
			c-9.8-9.6-24.3-13.1-33-13.9C74.8,53.8,85.3,54.9,92.8,58z"/>
		<path id="Path_5_" class="st5" d="M154.7,87.2c-8.1,1.2-15.2,6.2-20.5,12.3c-5.3,6.2-9,13.5-12.7,20.8c2.5-1,5.4,1.6,7.9,0.5
			c0.7-0.3,1.3-0.9,1.8-1.6c4.2-5.5,4.3-13.4,8.9-18.5c2.6-2.8,6.2-4.4,9.9-5.5c6.2-1.8,13.1-2.4,19.2-0.3c5.8,2,8.9,5.9,12.2,10.7
			C180.9,93.1,166,85.6,154.7,87.2z"/>
		<path id="Path_6_" class="st1" d="M146.4,50.3c-5.1-1.4-11.1,0.3-14.3,4.7c-1.3,1.8-2.1,3.8-2.9,5.9c-2.7,7.3-5.1,14.8-7,22.4
			c-1.6,6,0.4,13.2-0.7,19.4c-0.2,0.8-0.8,0.7-0.5,1.5c0.5,1.4-0.5,1.9,1,1.5c0.5-0.1,1.1-0.4,1.5-0.7c1.6-1.3,2.3-3.4,2.8-5.4
			c2-6.9,4.1-13.7,6.5-20.5c2.1-5.9,4.4-11.9,8.7-16.4c2.5-2.5,5.8-4.5,9.3-4.2c1.2,0.1,2.9,1.3,5.2,3.7
			C154,55.5,150.8,51.5,146.4,50.3z"/>
		<path id="Path_7_" class="st0" d="M148.6,54.9c-4.2-0.2-8.5,1.4-11.5,4.3c-3.9,3.8-5.4,9.3-6.8,14.5c-1.2,4.5-2.4,9-3.6,13.5
			c-2.7,10-5.4,20.3-4.3,30.6c1.4,1.7,4.4,1,5.8-0.8s1.6-4.1,1.8-6.4c1.5-14,5.9-27.7,12.9-39.9c1-1.7,2.5-3.5,4.4-3.1
			c4.7,1,7,8.5,10.6,11C162.3,73.2,155.7,55.2,148.6,54.9z"/>
		<path id="Path-Copy-2" class="st1" d="M123.2,121.2c6.1-17,17.9-31.9,33-41.4c15.3-9.7,23.4-14.4,41.2-12.1c-7.5,2.5,0,0-15,5
			c-5.5,1.8-16.2,7.9-24.5,14c-22.8,16.7-23.9,20.2-28.6,34.6C129.1,121.9,123.2,121.4,123.2,121.2z"/>
		<path id="Path_8_" class="st6" d="M123.8,117.9c5.8-16.5,17.4-30.8,32.3-40s32.9-13.1,50.2-11c-16.4,0.5-33.3,5.7-47,14.7
			s-24.7,22.4-30.1,37.9C127.1,120,125.7,119,123.8,117.9z"/>
		<path id="Path_9_" class="st7" d="M131.8,116.5c-1.8-2.4-5.9-1.9-7.9-4.1c-0.8-0.9-1.1-2.2-1.4-3.3c-3.4-15.5-0.6-31.6,2.2-47.2
			c1.8-10.1,9.9-30.2,24.3-60.2c-5.7,19.8-9,31.5-9.8,34.9c-2.1,8.7-3.9,17.5-5.4,26.4C130.9,80.6,129.6,98.6,131.8,116.5z"/>
		<path id="Path_10_" class="st0" d="M159.1,93.1c4.4-0.5,9.1-0.3,13.1,1.5c6.4,2.9,10.8,9.9,10.5,17c-4.3-6.5-12.3-10.3-20.1-9.7
			c-3.9,0.3-7.7,1.7-11.4,3.3c-6.7,2.9-13.4,7-17.3,13.5c-0.6,1-2,2.9-1.9,3c1.1,0.1-7.7,0-7.6,0c-0.9-1.2-0.9-2.8-0.6-4.7
			C126.2,103.2,147.1,94.3,159.1,93.1z"/>
		<g id="Path-Copy-3">
			<g>
				<path id="path-1" d="M88.1,82.7c2.6,1.5,5.2,3,7.2,5.2c1.9,2.1,3.2,4.6,4.5,7.2c3.9,7.7,7.9,15.5,9.7,24c2.7-0.3,4.3,2.4,7,2.1
					c1.3-12.3-3.9-27.7-13.3-35.7c-5.5-4.7-12-8.1-18.7-10.6c-5.2-1.8-12.6-3.9-18-2.2C74.4,76,80.6,78.4,88.1,82.7z"/>
			</g>
			<g>
				<path id="path-1_1_" class="st0" d="M88.1,82.7c2.6,1.5,5.2,3,7.2,5.2c1.9,2.1,3.2,4.6,4.5,7.2c3.9,7.7,7.9,15.5,9.7,24
					c2.7-0.3,4.3,2.4,7,2.1c1.3-12.3-3.9-27.7-13.3-35.7c-5.5-4.7-12-8.1-18.7-10.6c-5.2-1.8-12.6-3.9-18-2.2
					C74.4,76,80.6,78.4,88.1,82.7z"/>
			</g>
		</g>
		<path id="Path_11_" class="st2" d="M87.2,84.5c2.6,1.5,10.5,9.8,11.7,12.4c3.9,7.7,8.3,16.3,10.1,24.8c0.5,0,7.5,0,7.5,0
			c-4-13-6.6-24.5-16-32.5C95,84.4,89.8,80.1,83,77.6c-5.2-1.8-13.5-6.4-18.9-4.8C72,76.2,79.7,80.2,87.2,84.5z"/>
		<g id="Path_12_">
			<g>
				<path id="path-3" d="M119.4,88.8c0.5-5,4.1-67.7,29.4-87c-1.3,4.6-3.3,9.7-5.5,14C131.4,39.2,128.6,66,126,92.2
					c-0.6,5.8-1.3,12.6-0.2,18.2c0.7,3.6,1.6,7.9,0.6,11.3c0,0-5,0-5.5,0C120.7,120,118.6,98.2,119.4,88.8z"/>
			</g>
			<g>
				<path id="path-3_1_" class="st0" d="M119.4,88.8c0.5-5,4.1-67.7,29.4-87c-1.3,4.6-3.3,9.7-5.5,14C131.4,39.2,128.6,66,126,92.2
					c-0.6,5.8-1.3,12.6-0.2,18.2c0.7,3.6,1.6,7.9,0.6,11.3c0,0-5,0-5.5,0C120.7,120,118.6,98.2,119.4,88.8z"/>
			</g>
		</g>
	</g>
</g>
<g id="Tiles_1_">
	<g id="Artboard_1_" transform="translate(-26.000000, -443.000000)">
		<g id="bush_1_" transform="translate(26.000000, 443.000000)">
			<path id="Path_17_" class="st0" d="M299.1,110.3c1.8-0.3,3.5-0.8,5.3-1.1c8.4-2.1,16.7-6,22.9-12.1c4.7-4.7,7.4-12.1,4.4-17.8
				c-2.1-4.1-6.8-6.3-11.3-6.6c-4.4-0.3-8.9,0.8-12.7,2.9c3-0.8,5-3.8,5.6-6.8c0.6-3-0.2-6.2-1.1-9.1c-1.2-3.6-4.4-9.8-11.8-9.7
				c-4.7-0.2-9.4,1.1-13.4,3.5c-3.8,2.3-6.3,6.2-6.8,10.6c2.1-6.8-0.3-14.2-3.5-20.7c-1.7-3.3-3.5-6.6-6.2-9.2
				c-1.2-1.1-2.4-2.1-3.9-2.9c-12.8-6.6-38.6,2.1-29.7,27.2c1.7,4.5,4.8,10.4,8.9,14.5c-1.1-3.5-5.6-4.4-9.2-4.1
				c-9.7,1.1-18.9,8.4-20.1,18.1c-0.6,5.9,1.5,11.6,5.4,15.8c4.1,4.2,9.4,6.8,15.2,7.5C237.3,110.3,294.2,111.2,299.1,110.3z"/>
			<path id="Path_15_" class="st8" d="M260.4,110.4c1.4-0.3,2.9-0.6,4.2-0.9c6.8-1.7,13.6-4.8,18.4-9.7c3.8-3.6,5.9-9.5,3.5-14.2
				c-1.7-3.2-5.4-5.1-9.1-5.3c-3.6-0.2-7.1,0.6-10.3,2.3c2.4-0.6,4.1-3,4.5-5.4c0.5-2.4,0-5-0.9-7.2c-0.9-2.9-3.6-7.8-9.5-7.7
				c-3.8-0.2-7.5,0.9-10.7,2.7c-3,1.8-5.1,5-5.4,8.4c1.7-5.4-0.3-11.3-2.9-16.4c-1.4-2.7-2.9-5.3-5-7.4c-0.9-0.9-2-1.7-3.2-2.3
				C223.9,42.1,203,49,210.3,69c1.4,3.6,3.8,8.3,7.2,11.5c-0.9-2.7-4.5-3.5-7.4-3.2c-7.7,0.9-15.2,6.8-16.1,14.5
				c-0.5,4.7,1.2,9.2,4.4,12.7c3.3,3.3,7.5,5.4,12.2,5.9C210.6,110.4,256.4,111.2,260.4,110.4z"/>
			<path id="Path_13_" class="st9" d="M274.7,110.6c-0.9-0.2-2-0.5-2.9-0.6c-4.7-1.2-9.4-3.3-12.8-6.6c-2.6-2.6-4.1-6.6-2.4-9.8
				c1.2-2.3,3.8-3.5,6.3-3.6c2.4-0.2,5,0.5,7.1,1.7c-1.7-0.5-2.9-2.1-3.2-3.8c-0.3-1.7,0-3.5,0.6-5.1c0.6-2,2.4-5.4,6.6-5.4
				c2.6,0,5.3,0.6,7.5,2c2.1,1.2,3.5,3.5,3.8,5.9c-1.2-3.8,0.2-7.8,2-11.5c0.9-1.8,2-3.8,3.5-5.1c0.6-0.6,1.4-1.2,2.1-1.5
				c7.1-3.8,21.6,1.2,16.6,15.1c-0.9,2.6-2.7,5.9-5,8c0.6-2,3.2-2.4,5.1-2.3c5.4,0.6,10.6,4.7,11.2,10.1c0.3,3.2-0.8,6.5-3,8.8
				s-5.3,3.8-8.4,4.2C309.3,110.6,277.4,111.1,274.7,110.6z"/>
		</g>
	</g>
</g>
<g id="Tiles_3_">
	<g id="Artboard_3_" transform="translate(-594.000000, -250.000000)">
		<g id="Flag_3_" transform="translate(594.000000, 251.000000)">
			<g id="Layer_1_3_" transform="translate(11.000000, 0.000000)">
				<line id="Path_19_" class="st10" x1="409.3" y1="97.7" x2="409.3" y2="29.3"/>
			</g>
			<g id="Layer_2_3_" transform="translate(12.000000, 0.000000)">
				<path id="Path_14_" class="st11" d="M408.7,29.3c0,0,0,10,27.4,9.4c27.4-0.6,25.9,6.8,25.9,6.8s-10-3.2-23.7,10
					S408.5,65,408.5,65"/>
			</g>
			<g id="Path-Copy-4_3_">
				<g>
					<path id="path-1_3_" d="M446.4,108.2c-3-4.3-7.7-7.5-12.2-9c-0.9-0.2-1.7-0.4-2.4-0.6c-1.9-0.4-4.1-0.6-6-0.6h-9.6
						c-1.9,0-3.8,0.2-6,0.6L409,99l0,0c-4.7,1.3-10,4.5-13.5,9.4l-0.2,0.2h51.3L446.4,108.2z"/>
				</g>
			</g>
		</g>
	</g>
</g>
</svg>
