<?xml version="1.0" encoding="utf-8"?>
<!-- Generator: Adobe Illustrator 24.3.0, SVG Export Plug-In . SVG Version: 6.00 Build 0)  -->
<svg version="1.1" id="Capa_1" xmlns="http://www.w3.org/2000/svg" xmlns:xlink="http://www.w3.org/1999/xlink" x="0px" y="0px"
	 viewBox="0 0 911.4 88" style="enable-background:new 0 0 911.4 88;" xml:space="preserve">
<style type="text/css">
	.st0{fill:#F29F11;}
	.st1{fill:#FCC92D;}
	.st2{fill:#F3E290;}
	.st3{fill:#006633;}
	.st4{fill:#244C22;}
	.st5{fill:#008D36;}
	.st6{fill:#8D1C13;}
	.st7{fill:#6D2825;}
	.st8{fill:#38140E;}
	.st9{fill:#272250;}
	.st10{fill:#382780;}
	.st11{fill:#554B99;}
	.st12{fill:#2C2760;}
	.st13{fill:#1E1D3E;}
	.st14{fill:#4D5454;}
	.st15{fill:#575859;}
	.st16{fill:#A8A8A8;}
	.st17{opacity:0.5;fill:#737575;enable-background:new    ;}
	.st18{opacity:0.6;fill:#A8A8A8;enable-background:new    ;}
	.st19{fill:#434646;}
	.st20{fill:#737575;}
	.st21{fill:#E74038;}
	.st22{fill:#F29121;}
	.st23{fill:#907C57;}
	.st24{fill:#474646;}
	.st25{fill:#443F3F;}
	.st26{fill:#666666;}
	.st27{fill:#4F4F4F;}
	.st28{fill:#59595B;}
	.st29{fill:#A5A7AA;}
	.st30{fill:#7F8083;}
	.st31{fill:#C1B499;}
	.st32{fill-rule:evenodd;clip-rule:evenodd;fill:#9DA7AA;}
	.st33{fill:none;}
	.st34{fill-rule:evenodd;clip-rule:evenodd;fill:#FCBA5F;}
	.st35{fill-rule:evenodd;clip-rule:evenodd;fill:#DF801B;}
</style>
<g>
	<path class="st0" d="M117.8,43.1c2.1,0,3.8-1.7,3.8-3.7l0,0c0-2.1-1.7-3.8-3.7-3.8l-49.3-0.3c-2.1,0-3.8,1.7-3.8,3.7l0,0
		c0,2.1,1.7,3.8,3.7,3.8L117.8,43.1z"/>
	<g>
		
			<rect x="108.1" y="26.1" transform="matrix(5.810355e-03 -1 1 5.810355e-03 75.8108 143.5028)" class="st1" width="3.9" height="15.1"/>
		<polygon class="st0" points="106.1,26.8 102.6,26.8 102.6,29.2 102.5,31.5 117.6,31.6 117.6,29.3 117.7,26.9 114.1,26.9 
			114.1,29.3 111.9,29.3 111.9,26.8 108.3,26.8 108.3,29.3 106.1,29.3 		"/>
	</g>
	<g>
		
			<rect x="106.9" y="38.7" transform="matrix(5.810355e-03 -1 1 5.810355e-03 63.1012 155.9752)" class="st0" width="6.2" height="15.1"/>
		
			<rect x="108.8" y="40.6" transform="matrix(5.810355e-03 -1 1 5.810355e-03 61.2179 157.7913)" class="st1" width="2.3" height="15.1"/>
		
			<rect x="114.5" y="48.8" transform="matrix(5.810355e-03 -1 1 5.810355e-03 64.5005 165.9624)" class="st1" width="2.5" height="3.5"/>
		
			<rect x="108.7" y="48.8" transform="matrix(5.810355e-03 -1 1 5.810355e-03 58.7614 160.2055)" class="st1" width="2.5" height="3.5"/>
		
			<rect x="102.9" y="48.8" transform="matrix(5.810355e-03 -1 1 5.810355e-03 53.0182 154.448)" class="st1" width="2.5" height="3.5"/>
	</g>
	<path class="st1" d="M117.9,35.5l-54.7-0.3c-1.7,0-3.1-1.4-3.1-3.1v-1.3c0-6.5-5.2-11.8-11.7-11.8s-11.8,5.2-11.8,11.7l-0.1,16.6
		c0,6.5,5.2,11.8,11.7,11.8S60,53.9,60,47.4v-1.6c0-1.7,1.4-3.1,3.1-3.1l54.7,0.3c2.1,0,3.8-1.7,3.8-3.7
		C121.6,37.2,119.9,35.5,117.9,35.5z M53,43.5c-0.8,0.9-1,2.1-0.6,3.2c0.2,0.5,0.3,1,0.3,1.6c-0.1,2.7-2.5,4.9-5.3,4.6
		c-2.1-0.2-3.9-2-4.1-4.1c-0.1-0.8,0-1.5,0.3-2.2c0.4-1,0.2-2.2-0.6-3.1c-1-1.2-1.6-2.7-1.6-4.4s0.7-3.2,1.7-4.4
		c0.7-0.9,1-2,0.6-3.2c-0.3-0.6-0.4-1.4-0.3-2.2c0.3-2.1,2.1-3.8,4.2-4.1c2.8-0.3,5.2,1.9,5.2,4.7c0,0.6-0.1,1.1-0.3,1.6
		c-0.4,1.1-0.2,2.3,0.6,3.2c1,1.2,1.6,2.7,1.6,4.4C54.7,40.8,54,42.3,53,43.5z"/>
	<g>
		<g>
			<path class="st2" d="M45.2,31.8c-0.2-0.7-0.3-1.4-0.2-2.2c0.1-0.8,0.4-1.6,0.9-2.2c0.2-0.2,0.2-0.5,0.1-0.8l0,0
				c-0.2-0.4-0.7-0.6-1.1-0.3c-1.3,0.8-2.1,2.3-2.2,3.9c0,0.6,0.1,1.1,0.3,1.6c0.4,1.1,0.2,2.3-0.6,3.2c-1,1.2-1.7,2.7-1.7,4.4
				s0.6,3.2,1.6,4.4c0.8,0.9,1,2.1,0.6,3.2c-0.2,0.5-0.3,1-0.3,1.6c0,1.2,0.4,2.3,1.2,3.1c0.3,0.3,0.7,0.4,1,0.2l0,0
				c0.5-0.2,0.7-0.8,0.5-1.2c-0.2-0.5-0.4-1-0.4-1.5c-0.1-0.8,0-1.5,0.3-2.2c0.4-1.1,0.2-2.3-0.5-3.1c-1.1-1.2-1.7-2.7-1.7-4.5
				c0-1.7,0.7-3.3,1.7-4.4C45.4,34.1,45.6,32.9,45.2,31.8z"/>
		</g>
	</g>
	<g>
		<g>
			<path class="st0" d="M51.5,31.5c0.2-0.7,0.3-1.4,0.2-2.2c-0.1-0.8-0.4-1.6-0.8-2.2c-0.2-0.2-0.2-0.5-0.1-0.8l0,0
				c0.2-0.4,0.6-0.6,1-0.3c1.2,0.8,1.9,2.3,2,3.9c0,0.6-0.1,1.1-0.3,1.6c-0.4,1.1-0.2,2.3,0.6,3.2c0.9,1.2,1.6,2.7,1.6,4.4
				s-0.6,3.2-1.5,4.4c-0.7,0.9-0.9,2.1-0.6,3.2c0.2,0.5,0.3,1,0.3,1.6c0,1.2-0.4,2.3-1.1,3.1c-0.3,0.3-0.6,0.4-0.9,0.2l0,0
				c-0.5-0.2-0.6-0.8-0.5-1.2c0.2-0.5,0.4-1,0.4-1.5c0.1-0.8,0-1.5-0.3-2.2c-0.4-1.1-0.2-2.3,0.5-3.1c1-1.2,1.6-2.7,1.6-4.5
				c0-1.7-0.6-3.3-1.6-4.4C51.3,33.8,51.1,32.6,51.5,31.5z"/>
		</g>
	</g>
</g>
<g>
	<g>
		
			<rect x="221.7" y="28.1" transform="matrix(5.810355e-03 -1 1 5.810355e-03 186.7121 259.168)" class="st3" width="3.9" height="15.1"/>
		<polygon class="st4" points="219.7,28.8 216.2,28.8 216.2,31.2 216.1,33.5 231.2,33.6 231.2,31.3 231.3,28.9 227.7,28.9 
			227.7,31.3 225.5,31.3 225.5,28.8 221.9,28.8 221.9,31.3 219.7,31.3 		"/>
	</g>
	<g>
		
			<rect x="220.5" y="40.7" transform="matrix(5.810355e-03 -1 1 5.810355e-03 174.1032 271.5417)" class="st3" width="6.2" height="15.1"/>
		
			<rect x="222.4" y="42.6" transform="matrix(5.810355e-03 -1 1 5.810355e-03 172.1193 273.4567)" class="st4" width="2.3" height="15.1"/>
		
			<rect x="228.1" y="50.9" transform="matrix(5.810355e-03 -1 1 5.810355e-03 175.4017 281.6276)" class="st3" width="2.5" height="3.5"/>
		
			<rect x="222.3" y="50.9" transform="matrix(5.810355e-03 -1 1 5.810355e-03 169.6628 275.8709)" class="st3" width="2.5" height="3.5"/>
		
			<rect x="216.6" y="50.8" transform="matrix(5.810355e-03 -1 1 5.810355e-03 164.0201 270.0146)" class="st3" width="2.5" height="3.5"/>
	</g>
	<path class="st3" d="M231.5,37.7l-54.7-0.3c-1.7,0-3.1-1.4-3.1-3.1V33c0-6.5-5.2-11.8-11.7-11.8s-11.8,5.2-11.8,11.7l-0.1,16.6
		c0,6.5,5.2,11.8,11.7,11.8s11.8-5.2,11.8-11.7V48c0-1.7,1.4-3.1,3.1-3.1l54.7,0.3c2.1,0,3.8-1.7,3.8-3.7
		C235.2,39.4,233.5,37.7,231.5,37.7z M166.6,45.7c-0.8,0.9-1,2.1-0.6,3.2c0.2,0.5,0.3,1,0.3,1.6c-0.1,2.7-2.5,4.9-5.3,4.6
		c-2.1-0.2-3.9-2-4.1-4.1c-0.1-0.8,0-1.5,0.3-2.2c0.4-1,0.2-2.2-0.6-3.1c-1-1.2-1.6-2.7-1.6-4.4s0.7-3.2,1.7-4.4
		c0.7-0.9,1-2,0.6-3.2c-0.3-0.6-0.4-1.4-0.3-2.2c0.3-2.1,2.1-3.8,4.2-4.1c2.8-0.3,5.2,1.9,5.2,4.7c0,0.6-0.1,1.1-0.3,1.6
		c-0.4,1.1-0.2,2.3,0.6,3.2c1,1.2,1.6,2.7,1.6,4.4C168.3,43,167.6,44.5,166.6,45.7z"/>
	<g>
		<g>
			<path class="st5" d="M158.8,33.8c-0.2-0.7-0.3-1.4-0.2-2.2s0.4-1.6,0.9-2.2c0.2-0.2,0.2-0.5,0.1-0.8l0,0
				c-0.2-0.4-0.7-0.6-1.1-0.3c-1.3,0.8-2.1,2.3-2.2,3.9c0,0.6,0.1,1.1,0.3,1.6c0.4,1.1,0.2,2.3-0.6,3.2c-1,1.2-1.7,2.7-1.7,4.4
				s0.6,3.2,1.6,4.4c0.8,0.9,1,2.1,0.6,3.2c-0.2,0.5-0.3,1-0.3,1.6c0,1.2,0.4,2.3,1.2,3.1c0.3,0.3,0.7,0.4,1,0.2l0,0
				c0.5-0.2,0.7-0.8,0.5-1.2c-0.2-0.5-0.4-1-0.4-1.5c-0.1-0.8,0-1.5,0.3-2.2c0.4-1.1,0.2-2.3-0.5-3.1c-1.1-1.2-1.7-2.7-1.7-4.5
				c0-1.7,0.7-3.3,1.7-4.4C159,36.1,159.2,34.9,158.8,33.8z"/>
		</g>
	</g>
	<g>
		<g>
			<path class="st4" d="M165.1,33.6c0.2-0.7,0.3-1.4,0.2-2.2s-0.4-1.6-0.8-2.2c-0.2-0.2-0.2-0.5-0.1-0.8l0,0c0.2-0.4,0.6-0.6,1-0.3
				c1.2,0.8,1.9,2.3,2,3.9c0,0.6-0.1,1.1-0.3,1.6c-0.4,1.1-0.2,2.3,0.6,3.2c0.9,1.2,1.6,2.7,1.6,4.4s-0.6,3.2-1.5,4.4
				c-0.7,0.9-0.9,2.1-0.6,3.2c0.2,0.5,0.3,1,0.3,1.6c0,1.2-0.4,2.3-1.1,3.1c-0.3,0.3-0.6,0.4-0.9,0.2l0,0c-0.5-0.2-0.6-0.8-0.5-1.2
				c0.2-0.5,0.4-1,0.4-1.5c0.1-0.8,0-1.5-0.3-2.2c-0.4-1.1-0.2-2.3,0.5-3.1c1-1.2,1.6-2.7,1.6-4.5c0-1.7-0.6-3.3-1.6-4.4
				C165,35.9,164.8,34.7,165.1,33.6z"/>
		</g>
	</g>
</g>
<g>
	<g>
		
			<rect x="354.5" y="25.2" transform="matrix(5.810355e-03 -1 1 5.810355e-03 321.663 388.9696)" class="st6" width="3.9" height="15.1"/>
		<polygon class="st7" points="352.4,25.9 348.9,25.9 348.9,28.3 348.8,30.6 363.9,30.7 363.9,28.4 364,26 360.4,26 360.4,28.4 
			358.2,28.4 358.2,25.9 354.6,25.9 354.6,28.4 352.4,28.4 		"/>
	</g>
	<g>
		
			<rect x="353.3" y="37.8" transform="matrix(5.810355e-03 -1 1 5.810355e-03 308.9534 401.442)" class="st6" width="6.2" height="15.1"/>
		
			<rect x="355.2" y="39.6" transform="matrix(5.810355e-03 -1 1 5.810355e-03 307.0701 403.2582)" class="st7" width="2.3" height="15.1"/>
		
			<rect x="360.8" y="47.9" transform="matrix(5.810355e-03 -1 1 5.810355e-03 310.3526 411.4291)" class="st7" width="2.5" height="3.5"/>
		
			<rect x="355.1" y="47.9" transform="matrix(5.810355e-03 -1 1 5.810355e-03 304.6136 405.6723)" class="st7" width="2.5" height="3.5"/>
		
			<rect x="349.3" y="47.9" transform="matrix(5.810355e-03 -1 1 5.810355e-03 298.8704 399.9149)" class="st7" width="2.5" height="3.5"/>
	</g>
	<path class="st6" d="M364.2,34.7l-54.7-0.3c-1.7,0-3.1-1.4-3.1-3.1V30c0-6.5-5.2-11.8-11.7-11.8s-11.8,5.2-11.8,11.7l-0.1,16.6
		c0,6.5,5.2,11.8,11.7,11.8s11.8-5.2,11.8-11.7V45c0-1.7,1.4-3.1,3.1-3.1l54.7,0.3c2.1,0,3.8-1.7,3.8-3.7
		C367.9,36.4,366.2,34.7,364.2,34.7z M299.4,42.7c-0.8,0.9-1,2.1-0.6,3.2c0.2,0.5,0.3,1,0.3,1.6c-0.1,2.7-2.5,4.9-5.3,4.6
		c-2.1-0.2-3.9-2-4.1-4.1c-0.1-0.8,0-1.5,0.3-2.2c0.4-1,0.2-2.2-0.6-3.1c-1-1.2-1.6-2.7-1.6-4.4s0.7-3.2,1.7-4.4
		c0.7-0.9,1-2,0.6-3.2c-0.3-0.6-0.4-1.4-0.3-2.2c0.3-2.1,2.1-3.8,4.2-4.1c2.8-0.3,5.2,1.9,5.2,4.7c0,0.6-0.1,1.1-0.3,1.6
		c-0.4,1.1-0.2,2.3,0.6,3.2c1,1.2,1.6,2.7,1.6,4.4C301.1,40,300.4,41.5,299.4,42.7z"/>
	<g>
		<g>
			<path class="st7" d="M291.6,30.9c-0.2-0.7-0.3-1.4-0.2-2.2c0.1-0.8,0.4-1.6,0.9-2.2c0.2-0.2,0.2-0.5,0.1-0.8l0,0
				c-0.2-0.4-0.7-0.6-1.1-0.3c-1.3,0.8-2.1,2.3-2.2,3.9c0,0.6,0.1,1.1,0.3,1.6c0.4,1.1,0.2,2.3-0.6,3.2c-1,1.2-1.7,2.7-1.7,4.4
				s0.6,3.2,1.6,4.4c0.8,0.9,1,2.1,0.6,3.2c-0.2,0.5-0.3,1-0.3,1.6c0,1.2,0.4,2.3,1.2,3.1c0.3,0.3,0.7,0.4,1,0.2l0,0
				c0.5-0.2,0.7-0.8,0.5-1.2c-0.2-0.5-0.4-1-0.4-1.5c-0.1-0.8,0-1.5,0.3-2.2c0.4-1.1,0.2-2.3-0.5-3.1c-1.1-1.2-1.7-2.7-1.7-4.5
				c0-1.7,0.7-3.3,1.7-4.4C291.8,33.2,292,32,291.6,30.9z"/>
		</g>
	</g>
	<g>
		<g>
			<path class="st8" d="M297.9,30.7c0.2-0.7,0.3-1.4,0.2-2.2c-0.1-0.8-0.4-1.6-0.8-2.2c-0.2-0.2-0.2-0.5-0.1-0.8l0,0
				c0.2-0.4,0.6-0.6,1-0.3c1.2,0.8,1.9,2.3,2,3.9c0,0.6-0.1,1.1-0.3,1.6c-0.4,1.1-0.2,2.3,0.6,3.2c0.9,1.2,1.6,2.7,1.6,4.4
				s-0.6,3.2-1.5,4.4c-0.7,0.9-0.9,2.1-0.6,3.2c0.2,0.5,0.3,1,0.3,1.6c0,1.2-0.4,2.3-1.1,3.1c-0.3,0.3-0.6,0.4-0.9,0.2l0,0
				c-0.5-0.2-0.6-0.8-0.5-1.2c0.2-0.5,0.4-1,0.4-1.5c0.1-0.8,0-1.5-0.3-2.2c-0.4-1.1-0.2-2.3,0.5-3.1c1-1.2,1.6-2.7,1.6-4.5
				c0-1.7-0.6-3.3-1.6-4.4C297.7,33,297.5,31.8,297.9,30.7z"/>
		</g>
	</g>
</g>
<g>
	<g>
		
			<rect x="496.5" y="27.8" transform="matrix(5.810355e-03 -1 1 5.810355e-03 460.225 533.5159)" class="st9" width="3.9" height="15.1"/>
		<polygon class="st10" points="494.5,28.5 491,28.5 491,30.9 490.9,33.2 506,33.3 506,31 506.1,28.6 502.5,28.6 502.5,31 500.3,31 
			500.3,28.5 496.7,28.5 496.7,31 494.5,31 		"/>
	</g>
	<g>
		
			<rect x="495.2" y="40.3" transform="matrix(5.810355e-03 -1 1 5.810355e-03 447.6158 545.8895)" class="st9" width="6.2" height="15.1"/>
		
			<rect x="497.2" y="42.2" transform="matrix(5.810355e-03 -1 1 5.810355e-03 445.6319 547.8045)" class="st10" width="2.3" height="15.1"/>
		
			<rect x="502.9" y="50.5" transform="matrix(5.810355e-03 -1 1 5.810355e-03 449.0134 556.076)" class="st10" width="2.5" height="3.5"/>
		
			<rect x="497.2" y="50.5" transform="matrix(5.810355e-03 -1 1 5.810355e-03 443.2744 550.3192)" class="st10" width="2.5" height="3.5"/>
		
			<rect x="491.4" y="50.5" transform="matrix(5.810355e-03 -1 1 5.810355e-03 437.5312 544.5618)" class="st10" width="2.5" height="3.5"/>
	</g>
	<path class="st11" d="M506.3,37.3L451.6,37c-1.7,0-3.1-1.4-3.1-3.1v-1.3c0-6.5-5.2-11.8-11.7-11.8S425,26,425,32.5l-0.1,16.6
		c0,6.5,5.2,11.8,11.7,11.8s11.8-5.2,11.8-11.7v-1.6c0-1.7,1.4-3.1,3.1-3.1l54.7,0.3c2.1,0,3.8-1.7,3.8-3.7
		C510,39,508.3,37.3,506.3,37.3z M441.4,45.3c-0.8,0.9-1,2.1-0.6,3.2c0.2,0.5,0.3,1,0.3,1.6c-0.1,2.7-2.5,4.9-5.3,4.6
		c-2.1-0.2-3.9-2-4.1-4.1c-0.1-0.8,0-1.5,0.3-2.2c0.4-1,0.2-2.2-0.6-3.1c-1-1.2-1.6-2.7-1.6-4.4s0.7-3.2,1.7-4.4
		c0.7-0.9,1-2,0.6-3.2c-0.3-0.6-0.4-1.4-0.3-2.2c0.3-2.1,2.1-3.8,4.2-4.1c2.8-0.3,5.2,1.9,5.2,4.7c0,0.6-0.1,1.1-0.3,1.6
		c-0.4,1.1-0.2,2.3,0.6,3.2c1,1.2,1.6,2.7,1.6,4.4C443.1,42.6,442.4,44.1,441.4,45.3z"/>
	<g>
		<g>
			<path class="st12" d="M433.6,33.5c-0.2-0.7-0.3-1.4-0.2-2.2c0.1-0.8,0.4-1.6,0.9-2.2c0.2-0.2,0.2-0.5,0.1-0.8l0,0
				c-0.2-0.4-0.7-0.6-1.1-0.3c-1.3,0.8-2.1,2.3-2.2,3.9c0,0.6,0.1,1.1,0.3,1.6c0.4,1.1,0.2,2.3-0.6,3.2c-1,1.2-1.7,2.7-1.7,4.4
				s0.6,3.2,1.6,4.4c0.8,0.9,1,2.1,0.6,3.2c-0.2,0.5-0.3,1-0.3,1.6c0,1.2,0.4,2.3,1.2,3.1c0.3,0.3,0.7,0.4,1,0.2l0,0
				c0.5-0.2,0.7-0.8,0.5-1.2c-0.2-0.5-0.4-1-0.4-1.5c-0.1-0.8,0-1.5,0.3-2.2c0.4-1.1,0.2-2.3-0.5-3.1c-1.1-1.2-1.7-2.7-1.7-4.5
				c0-1.7,0.7-3.3,1.7-4.4C433.8,35.8,434,34.6,433.6,33.5z"/>
		</g>
	</g>
	<g>
		<g>
			<path class="st13" d="M439.9,33.2c0.2-0.7,0.3-1.4,0.2-2.2c-0.1-0.8-0.4-1.6-0.8-2.2c-0.2-0.2-0.2-0.5-0.1-0.8l0,0
				c0.2-0.4,0.6-0.6,1-0.3c1.2,0.8,1.9,2.3,2,3.9c0,0.6-0.1,1.1-0.3,1.6c-0.4,1.1-0.2,2.3,0.6,3.2c0.9,1.2,1.6,2.7,1.6,4.4
				s-0.6,3.2-1.5,4.4c-0.7,0.9-0.9,2.1-0.6,3.2c0.2,0.5,0.3,1,0.3,1.6c0,1.2-0.4,2.3-1.1,3.1c-0.3,0.3-0.6,0.4-0.9,0.2l0,0
				c-0.5-0.2-0.6-0.8-0.5-1.2c0.2-0.5,0.4-1,0.4-1.5c0.1-0.8,0-1.5-0.3-2.2c-0.4-1.1-0.2-2.3,0.5-3.1c1-1.2,1.6-2.7,1.6-4.5
				c0-1.7-0.6-3.3-1.6-4.4C439.7,35.5,439.5,34.3,439.9,33.2z"/>
		</g>
	</g>
</g>
<g>
	<g>
		<g>
			<path class="st14" d="M710.1,79.9c-0.3,0-0.5-0.2-0.6-0.4c-0.1-0.3,0-0.7,0.3-0.8c0.2-0.2,3.8-3.6,1.4-8.5
				c-0.8-1.6-0.9-3.1-0.3-4.5c1.1-2.7,4.3-4,4.5-4c0.3-0.1,0.7,0,0.9,0.4c0.1,0.3,0,0.7-0.4,0.9c0,0-2.8,1.1-3.7,3.3
				c-0.4,1-0.3,2.2,0.3,3.5c1.4,2.9,1,5.4,0.4,7c-0.7,1.8-1.9,3.1-2.4,3.3C710.2,79.9,710.1,79.9,710.1,79.9z"/>
			<path class="st14" d="M716.1,62c-0.1-0.3-0.5-0.5-0.9-0.4c-0.1,0-1.2,0.5-2.3,1.3L713,63c0.4,0.8-0.6,1.5-1,2.1
				c-0.9,1.6-0.7,3.1-0.1,4.7c0.4,1.2,1,2.5,0.9,3.8c-0.1,1.4-0.6,2.8-1.4,3.9c-0.5,0.7-1.2,1.2-1.9,1.9c0.1,0.2,0.3,0.4,0.6,0.4
				c0.1,0,0.2,0,0.2,0c0.5-0.2,1.7-1.5,2.4-3.3c0.6-1.6,1-4.1-0.4-7c-0.6-1.2-0.7-2.4-0.3-3.5c0.9-2.2,3.7-3.3,3.7-3.3
				C716.1,62.8,716.2,62.4,716.1,62z"/>
		</g>
		<g>
			<polygon class="st15" points="717.7,45.9 706.9,49.6 714,66.4 724.4,62 			"/>
			<path class="st16" d="M789,11l-64.7,17.9c0,0-14.5,5.7-11.8,21.6c3,17.3,20.3,17.9,30,14l56.1-29.6C798.6,34.9,796.4,27.5,789,11
				z"/>
			<path class="st17" d="M742.3,48.8c-2.5,1.2-5,2.3-7.5,3.4c-1.8,0.8-3.6,1.6-5.4,2.2c-3.6,1.1-7.9,1.8-11.3-0.1
				c-3.3-1.8-4.9-5.4-5.3-9c-0.1-1.4-0.1-2.8,0.1-4.2c-0.8,2.6-1,5.7-0.4,9.3c3,17.3,20.3,17.9,30,14l56.1-29.6
				c0,0-0.3-1.9-3.8-10.4C794.6,24.6,752.3,44.1,742.3,48.8z"/>
			<path class="st18" d="M713.8,46.3c0,0-0.2-11.2,11.7-16.4L786.8,13L727,34.7C727,34.7,718.7,37.9,713.8,46.3z"/>
			<g>
				<path class="st15" d="M798.5,36.6c-0.5,0-0.9-0.3-1.1-0.8l-9.4-25c-0.2-0.6,0.1-1.3,0.7-1.5c0.6-0.2,1.3,0.1,1.5,0.7l9.5,25.1
					c0.2,0.6-0.1,1.3-0.7,1.5C798.8,36.6,798.7,36.6,798.5,36.6z"/>
				<path class="st16" d="M789.9,10.6c0,0.4-0.3,0.7-0.7,0.7s-0.7-0.3-0.7-0.7s0.3-0.7,0.7-0.7C789.6,9.9,789.9,10.2,789.9,10.6z"/>
				<path class="st16" d="M792.3,17.3c0,0.4-0.3,0.7-0.7,0.7s-0.7-0.3-0.7-0.7s0.3-0.7,0.7-0.7C792,16.6,792.3,16.9,792.3,17.3z"/>
				<path class="st16" d="M794.4,22.7c0,0.4-0.3,0.7-0.7,0.7s-0.7-0.3-0.7-0.7c0-0.4,0.3-0.7,0.7-0.7C794,22,794.4,22.3,794.4,22.7z
					"/>
				<path class="st16" d="M796.7,28.7c0,0.4-0.3,0.7-0.7,0.7s-0.7-0.3-0.7-0.7c0-0.4,0.3-0.7,0.7-0.7
					C796.3,28,796.7,28.3,796.7,28.7z"/>
				<path class="st16" d="M798.9,34.9c0,0.4-0.3,0.7-0.7,0.7s-0.7-0.3-0.7-0.7s0.3-0.7,0.7-0.7C798.6,34.2,798.9,34.5,798.9,34.9z"
					/>
			</g>
		</g>
	</g>
	<path class="st17" d="M744.8,37.8c-11.7,0-21.3,9.5-21.3,21.3c0,2.3,0.4,4.5,1,6.6c1.4,0.5,2.9,0.7,4.4,0.8c1.2,0,2.3,0,3.5-0.1
		c-1.1-1.8-1.7-3.8-1.9-6h9.3c0.1,0.5,0.3,1,0.6,1.4l-4.1,4.1c1.4-0.2,2.9-0.5,4.3-0.9l1.6-1.6c0.2,0.1,0.5,0.3,0.8,0.4
		c0.7-0.3,1.5-0.6,2.2-0.9c0.3-0.1,0.6-0.2,1-0.3c1.2-0.6,2.3-1.2,3.4-1.9c0-0.1,0.1-0.2,0.1-0.4h0.5c1.4-0.8,2.8-1.7,4.2-2.4h-4.7
		c-0.1-0.5-0.3-1-0.6-1.4l6.6-6.6c1.5,1.7,2.5,3.8,3,6.2c2.1-1.1,4.3-2.2,6.3-3.4C762.4,44.1,754.3,37.8,744.8,37.8z M740,57.9h-9.3
		c0.3-3,1.5-5.8,3.3-8l6.6,6.6C740.3,56.9,740.1,57.4,740,57.9z M743.6,54.2c-0.5,0.1-1,0.3-1.4,0.6l-6.6-6.6c2.2-1.9,5-3.1,8-3.3
		V54.2z M747.4,54.8c-0.4-0.3-0.9-0.5-1.4-0.6v-9.3c3,0.3,5.8,1.5,8,3.3L747.4,54.8z"/>
	<g>
		<path class="st19" d="M742.7,40.4c-10.7,0-19.4,8.7-19.4,19.4s8.7,19.4,19.4,19.4s19.4-8.7,19.4-19.4
			C762.1,49.1,753.4,40.4,742.7,40.4z M742.7,74c-7.9,0-14.3-6.4-14.3-14.3s6.4-14.3,14.3-14.3c7.9,0,14.3,6.4,14.3,14.3
			S750.6,74,742.7,74z"/>
		<g>
			<g>
				<path class="st15" d="M742.7,79.1c-0.7,0-1.2-0.5-1.2-1.2V41.6c0-0.7,0.5-1.2,1.2-1.2s1.2,0.5,1.2,1.2v36.3
					C743.9,78.6,743.4,79.1,742.7,79.1z"/>
				<path class="st15" d="M760.9,61h-36.3c-0.7,0-1.2-0.5-1.2-1.2s0.5-1.2,1.2-1.2h36.3c0.7,0,1.2,0.5,1.2,1.2
					C762.1,60.4,761.5,61,760.9,61z"/>
			</g>
			<g>
				<path class="st15" d="M729.9,73.8c-0.3,0-0.6-0.1-0.8-0.3c-0.5-0.5-0.5-1.2,0-1.7l25.7-25.7c0.5-0.5,1.2-0.5,1.7,0
					s0.5,1.2,0,1.7l-25.7,25.7C730.5,73.7,730.2,73.8,729.9,73.8z"/>
				<path class="st15" d="M755.6,73.8c-0.3,0-0.6-0.1-0.8-0.3L729,47.8c-0.5-0.5-0.5-1.2,0-1.7s1.2-0.5,1.7,0l25.7,25.7
					c0.5,0.5,0.5,1.2,0,1.7C756.2,73.7,755.9,73.8,755.6,73.8z"/>
			</g>
		</g>
		<path class="st16" d="M747.7,59.8c0,2.8-2.2,5-5,5s-5-2.2-5-5s2.2-5,5-5C745.5,54.7,747.7,57,747.7,59.8z"/>
		<path class="st20" d="M742.7,38.5c-11.7,0-21.3,9.5-21.3,21.3c0,11.7,9.5,21.3,21.3,21.3c11.7,0,21.3-9.5,21.3-21.3
			S754.5,38.5,742.7,38.5z M742.7,75.4c-8.7,0-15.7-7-15.7-15.7S734,44,742.7,44s15.7,7,15.7,15.7S751.4,75.4,742.7,75.4z"/>
	</g>
</g>
<g>
	<g>
		<path class="st21" d="M869.6-1.3"/>
		<path class="st21" d="M885.9,4.7"/>
		<path class="st22" d="M875.2,15.3"/>
		<path class="st22" d="M872.5,12.1"/>
	</g>
	<g>
		<g>
			<path class="st23" d="M871,33.3c-1.3,2.5-2.7,4-2.7,4c-0.2,0.2-0.5,0.3-0.7,0.3s-0.5-0.1-0.7-0.3c-0.4-0.4-0.4-1,0-1.4
				c0.2-0.2,4.5-4.8,4.5-11.3c0-1.9-0.4-3.9-1.3-6.1c-0.2-0.5,0-1.1,0.5-1.3c0.5-0.2,1.1,0,1.3,0.5c0.1,0.2,0.2,0.4,0.2,0.6l0,0
				C874.4,24.5,872.8,29.8,871,33.3z"/>
		</g>
		<path class="st24" d="M873.5,39.3c-1.2,3.4-11.8-3.3-13.1-4.1c-0.1-0.1-0.1-0.1-0.1-0.1s-0.1-0.3-0.1-0.8l0,0c0-0.9,0.4-2.5,3-2.8
			c2.4-0.3,5.3,0.8,7.5,2.4C872.8,35.5,874.2,37.5,873.5,39.3z"/>
		<path class="st25" d="M873.5,39.3c-1.2,3.4-11.8-3.3-13.1-4.1l-0.2-0.8l0,0c0,0,4-1.4,9.7,2.7c0,0,2.7,0.5,0.8-3.1
			C872.8,35.5,874.2,37.5,873.5,39.3z"/>
		<circle class="st26" cx="856.9" cy="58.1" r="24"/>
		<path class="st27" d="M836.2,67.5c0,0,14.4,10.8,27.6,1c15.8-11.7,7.9-28.6,7.9-28.6c8,4.6,13.3,24.8,0.5,35.6
			C856.4,88.7,839.3,76.2,836.2,67.5z"/>
		<path class="st28" d="M836.2,66.5c0,0-5-12.8,4.5-24c7.6-8.9,19.5-8.1,28.2-3.7c0,0-15.5,1.5-18.7,13.5c0,0-1.7-9.9,8.8-15.2
			c0,0-2.1-0.5-3.4,0C855.6,37.1,837.6,43.9,836.2,66.5z"/>
		<path class="st29" d="M835.7,61.4c0,0-2.2-18.7,14.6-24.7c0,0,7.1-2.8,16.5,1.6c0,0-7.2-3.3-15.1-1.5
			C851.7,36.8,837.8,44.5,835.7,61.4z"/>
		<path class="st28" d="M878.9,53c0,0,3.2,18.2-11.2,24.6c-14.3,6.5-24.3-2.2-24.3-2.2s8.8,6.9,23.1,2.2c0,0-1.7,0.7-1.4-0.7
			c0.2-1.4,5-4.8,6.6-5.2c1.6-0.3,0.7,1.7,0.7,1.7S880.8,65.1,878.9,53z"/>
		<path class="st30" d="M861.3,33.6c0,0-0.1-1.7,2.6-1.8s5.3,1.2,6.5,2.6c0,0-3.4-2.1-5.4-2c0,0,1,0.3-0.5,0.7
			c-1.4,0.4-2-0.2-1.7-0.5C862.9,32.6,861.7,32.7,861.3,33.6z"/>
		<path class="st31" d="M871,33.3c-0.3-0.4-0.5-0.9-0.5-0.9c3.8-8.6-0.1-13.1,0.5-14s1.2,0,1.2,0l0,0
			C874.4,24.5,872.8,29.8,871,33.3z"/>
	</g>
</g>
<path class="st32" d="M576.2,22c2.6,0,5.2,0.6,7.5,1.7l1.9,0.9l-1.2,1.7c-0.8,1-1.2,2.3-1.2,3.6c0,3.4,2.7,6.1,6.1,6.1
	c0.7,0,1.3-0.1,1.9-0.3l2-0.7l0.3,2.1c0.1,0.8,0.2,1.6,0.2,2.4c0,9.6-7.8,17.4-17.4,17.4s-17.4-7.8-17.4-17.4S566.6,22,576.2,22z
	 M576.2,25.4c-7.7,0-14,6.2-14,14s6.2,14,14,14s14-6.2,14-14l0,0h-0.4h-0.5c-5.3,0-9.6-4.3-9.6-9.6c0-1.3,0.2-2.5,0.7-3.6v-0.1
	l-0.6-0.2c-1-0.3-2-0.4-3-0.5H576.2z M581.4,42.9c1,0,1.7,0.8,1.7,1.7c0,1-0.8,1.7-1.7,1.7c-1,0-1.7-0.8-1.7-1.7
	S580.5,42.9,581.4,42.9z M571,41.1c1,0,1.7,0.8,1.7,1.7s-0.8,1.7-1.7,1.7c-1,0-1.7-0.8-1.7-1.7S570,41.1,571,41.1z M572.7,30.7
	c1,0,1.7,0.8,1.7,1.7s-0.8,1.7-1.7,1.7c-1,0-1.7-0.8-1.7-1.7S571.8,30.7,572.7,30.7z"/>
<g>
	<path class="st33" d="M625.4,20.4h40.9v40.9h-40.9V20.4z"/>
	<path class="st34" d="M646.1,24.2c-9.4,0-17,7.6-17,17s7.6,17,17,17s17-7.6,17-17c0-0.8-0.1-1.6-0.2-2.3l-0.3-2l-1.9,0.6
		c-0.6,0.2-1.2,0.3-1.9,0.3c-3.3,0-5.9-2.7-5.9-5.9c0-1.3,0.4-2.5,1.1-3.5l1.2-1.7l-1.8-0.9C651.1,24.7,648.6,24.2,646.1,24.2z"/>
	<circle class="st35" cx="642.3" cy="34.2" r="1.6"/>
	<circle class="st35" cx="651.2" cy="45.8" r="1.6"/>
	<circle class="st35" cx="640.9" cy="44.4" r="1.6"/>
</g>
</svg>
