<svg xmlns="http://www.w3.org/2000/svg" width="24" height="24" viewBox="0 0 24 24">
    <path fill="#12171A" fill-rule="evenodd" d="M12.02 2.013c2.763 0 5.003 2.24 5.003 5.003v3.109C18.247 11.385 19 13.105 19 15c0 3.866-3.134 7-7 7s-7-3.134-7-7c0-1.915.77-3.651 2.016-4.915V7.016c0-2.763 2.24-5.003 5.004-5.003zM12 10c-2.761 0-5 2.239-5 5s2.239 5 5 5 5-2.239 5-5-2.239-5-5-5zm0 3c.552 0 1 .448 1 1v1.967c0 .553-.448 1-1 1s-1-.447-1-1V14c0-.552.448-1 1-1zm.02-8.987c-1.659 0-3.004 1.344-3.004 3.003v1.65C9.921 8.239 10.933 8 12 8c1.083 0 2.108.246 3.023.685V7.016c0-1.659-1.345-3.003-3.003-3.003z"/>
</svg>
