<?xml version="1.0" encoding="UTF-8" standalone="no"?>
<svg
   xmlns:dc="http://purl.org/dc/elements/1.1/"
   xmlns:cc="http://creativecommons.org/ns#"
   xmlns:rdf="http://www.w3.org/1999/02/22-rdf-syntax-ns#"
   xmlns:svg="http://www.w3.org/2000/svg"
   xmlns="http://www.w3.org/2000/svg"
   xmlns:xlink="http://www.w3.org/1999/xlink"
   xmlns:sodipodi="http://sodipodi.sourceforge.net/DTD/sodipodi-0.dtd"
   xmlns:inkscape="http://www.inkscape.org/namespaces/inkscape"
   width="1141px"
   height="261px"
   viewBox="0 0 1141 261"
   version="1.1"
   id="svg5320"
   sodipodi:docname="monster.svg"
   inkscape:version="1.0 (4035a4fb49, 2020-05-01)">
  <metadata
     id="metadata5324">
    <rdf:RDF>
      <cc:Work
         rdf:about="">
        <dc:format>image/svg+xml</dc:format>
        <dc:type
           rdf:resource="http://purl.org/dc/dcmitype/StillImage" />
        <dc:title>KidsEdu</dc:title>
      </cc:Work>
    </rdf:RDF>
  </metadata>
  <sodipodi:namedview
     inkscape:document-rotation="0"
     pagecolor="#ffffff"
     bordercolor="#666666"
     borderopacity="1"
     objecttolerance="10"
     gridtolerance="10"
     guidetolerance="10"
     inkscape:pageopacity="0"
     inkscape:pageshadow="2"
     inkscape:window-width="1366"
     inkscape:window-height="705"
     id="namedview5322"
     showgrid="false"
     inkscape:zoom="1.022787"
     inkscape:cx="317.231"
     inkscape:cy="130.5"
     inkscape:window-x="-8"
     inkscape:window-y="-8"
     inkscape:window-maximized="1"
     inkscape:current-layer="svg5320" />
  <!-- Generator: Sketch 63 (92445) - https://sketch.com -->
  <title
     id="title2668">KidsEdu</title>
  <desc
     id="desc2670">Created with Sketch.</desc>
  <defs
     id="defs2845">
    <radialGradient
       cx="18.000011"
       cy="17.999973"
       fx="18.000011"
       fy="17.999973"
       r="18.000011"
       id="radialGradient-1"
       gradientUnits="userSpaceOnUse">
      <stop
         stop-color="#F1C98A"
         offset="0%"
         id="stop2672" />
      <stop
         stop-color="#EFBF75"
         offset="20%"
         id="stop2674" />
      <stop
         stop-color="#EDB762"
         offset="46%"
         id="stop2676" />
      <stop
         stop-color="#EBB257"
         offset="72%"
         id="stop2678" />
      <stop
         stop-color="#EBB053"
         offset="100%"
         id="stop2680" />
    </radialGradient>
    <path
       d="M29.8180049,0.6 C18.6180049,-0.2 -7.98199512,13.2 2.61800488,30.8 C11.3180049,45.3 46.1180049,36.3 43.7180049,15.5 C43.7180049,15.5 28.1180049,22.7 30.4180049,12.1 C30.8180049,10.9 31.7180049,9.9 32.9180049,9.4 C31.5180049,6.6 30.5180049,3.7 29.8180049,0.6 Z"
       id="path-2" />
    <path
       d="M37.2025033,0.4 C32.6025033,7.3 25.9025033,9.8 17.0025033,12.6 C3.50250325,16.9 0.20250325,26.6 0.20250325,26.6 C10.6025033,31.6 22.3025033,33.2 33.6025033,31.2 C45.4025033,29 49.5025033,16.7 49.5025033,16.7 L50.9025033,7.9 L37.2025033,0.4 Z"
       id="path-4" />
    <linearGradient
       x1="62.474591"
       y1="43.85577"
       x2="48.246469"
       y2="-1.3390799"
       id="linearGradient-6"
       gradientUnits="userSpaceOnUse">
      <stop
         stop-color="#EB7331"
         offset="0%"
         id="stop2685" />
      <stop
         stop-color="#CF4913"
         offset="100%"
         id="stop2687" />
    </linearGradient>
    <linearGradient
       x1="28.134015"
       y1="260.93651"
       x2="28.134015"
       y2="206.53316"
       id="linearGradient-7"
       gradientTransform="scale(2.203738,0.45377444)"
       gradientUnits="userSpaceOnUse">
      <stop
         stop-color="#2E3436"
         offset="0%"
         id="stop2690" />
      <stop
         stop-color="#D8571D"
         offset="100%"
         id="stop2692" />
    </linearGradient>
    <linearGradient
       x1="50%"
       y1="-13.7659144%"
       x2="50%"
       y2="50%"
       id="linearGradient-8">
      <stop
         stop-color="#BF9971"
         offset="0%"
         id="stop2695" />
      <stop
         stop-color="#6B4629"
         offset="100%"
         id="stop2697" />
    </linearGradient>
    <path
       d="M0.45,30.0517401 C12.83,14.5517401 38.45,0.0517400721 60.45,0.0517400721 L60.45,22.0517401"
       id="path-9" />
    <polygon
       id="path-11"
       points="18 8.55806015 32.5 0.0580601517 14 17.0580602 0 24.5580602" />
    <filter
       x="-27.3%"
       y="-7.7%"
       width="154.5%"
       height="115.4%"
       filterUnits="objectBoundingBox"
       id="filter-13">
      <feGaussianBlur
         stdDeviation="1"
         in="SourceGraphic"
         id="feGaussianBlur2702" />
    </filter>
    <polygon
       id="path-14"
       points="17.5 2.70751627 27 0.207516266 14 14.2075163 0 18.7075163" />
    <filter
       x="-25.0%"
       y="-7.7%"
       width="150.0%"
       height="115.4%"
       filterUnits="objectBoundingBox"
       id="filter-16">
      <feGaussianBlur
         stdDeviation="1"
         in="SourceGraphic"
         id="feGaussianBlur2706" />
    </filter>
    <polygon
       id="path-17"
       points="13.5 2.5 23 0.5 13 14.5 0 17" />
    <filter
       x="-25.0%"
       y="-7.7%"
       width="150.0%"
       height="115.4%"
       filterUnits="objectBoundingBox"
       id="filter-19">
      <feGaussianBlur
         stdDeviation="1"
         in="SourceGraphic"
         id="feGaussianBlur2710" />
    </filter>
    <polygon
       id="path-20"
       points="10.5 0.0517400721 18 1.05174007 18 10.5517401 0 14.5517401" />
    <filter
       x="-16.7%"
       y="-13.6%"
       width="133.3%"
       height="127.3%"
       filterUnits="objectBoundingBox"
       id="filter-22">
      <feGaussianBlur
         stdDeviation="1"
         in="SourceGraphic"
         id="feGaussianBlur2714" />
    </filter>
    <linearGradient
       x1="50%"
       y1="0%"
       x2="50%"
       y2="50%"
       id="linearGradient-23">
      <stop
         stop-color="#BF9971"
         offset="0%"
         id="stop2717" />
      <stop
         stop-color="#6B4629"
         offset="100%"
         id="stop2719" />
    </linearGradient>
    <linearGradient
       x1="58.8761019%"
       y1="44.0299684%"
       x2="65.7246094%"
       y2="55.9483194%"
       id="linearGradient-24">
      <stop
         stop-color="#B58F69"
         offset="0%"
         id="stop2722" />
      <stop
         stop-color="#A47855"
         offset="100%"
         id="stop2724" />
    </linearGradient>
    <linearGradient
       x1="10.198039"
       y1="0"
       x2="10.198039"
       y2="36.091497"
       id="linearGradient-25"
       gradientTransform="scale(3.1378582,0.31868872)"
       gradientUnits="userSpaceOnUse">
      <stop
         stop-color="#BF9971"
         offset="0%"
         id="stop2727" />
      <stop
         stop-color="#6B4629"
         offset="100%"
         id="stop2729" />
    </linearGradient>
    <linearGradient
       x1="14.149737"
       y1="80.281457"
       x2="14.149737"
       y2="107.63162"
       id="linearGradient-26"
       gradientTransform="scale(2.3094011,0.4330127)"
       gradientUnits="userSpaceOnUse">
      <stop
         stop-color="#B58F69"
         offset="0%"
         id="stop2732" />
      <stop
         stop-color="#A47855"
         offset="100%"
         id="stop2734" />
    </linearGradient>
    <radialGradient
       cx="12.254032"
       cy="1.5257812"
       fx="12.254032"
       fy="1.5257812"
       r="23.685937"
       gradientTransform="scale(2.6666667,0.375)"
       id="radialGradient-27"
       gradientUnits="userSpaceOnUse">
      <stop
         stop-color="#C7A078"
         offset="0%"
         id="stop2737" />
      <stop
         stop-color="#CBA27B"
         offset="100%"
         id="stop2739" />
    </radialGradient>
    <rect
       id="path-28"
       x="0"
       y="0"
       width="64"
       height="9" />
    <polygon
       id="path-30"
       points="2.06451613 0 15.483871 0 16.6885501 11.5 0.807459677 12" />
    <filter
       x="-20.8%"
       y="-10.3%"
       width="141.5%"
       height="120.7%"
       filterUnits="objectBoundingBox"
       id="filter-32">
      <feGaussianBlur
         stdDeviation="1"
         in="SourceGraphic"
         id="feGaussianBlur2744" />
    </filter>
    <polygon
       id="path-33"
       points="2.58064516 0.88725438 13.9354839 0.88725438 13.9354839 12.3872544 0 12.8872544" />
    <filter
       x="-20.0%"
       y="-12.0%"
       width="140.0%"
       height="124.0%"
       filterUnits="objectBoundingBox"
       id="filter-35">
      <feGaussianBlur
         stdDeviation="1"
         in="SourceGraphic"
         id="feGaussianBlur2748" />
    </filter>
    <polygon
       id="path-36"
       points="0 0 12.3870968 0 12.3870968 11.5 0 12" />
    <filter
       x="-22.4%"
       y="-10.7%"
       width="144.7%"
       height="121.4%"
       filterUnits="objectBoundingBox"
       id="filter-38">
      <feGaussianBlur
         stdDeviation="1"
         in="SourceGraphic"
         id="feGaussianBlur2752" />
    </filter>
    <polygon
       id="path-39"
       points="2.94057849 0.88725438 14.2954172 0.88725438 14.2954172 12.3872544 0.876062358 11.3872544" />
    <filter
       x="-19.4%"
       y="-12.0%"
       width="138.8%"
       height="124.0%"
       filterUnits="objectBoundingBox"
       id="filter-41">
      <feGaussianBlur
         stdDeviation="1"
         in="SourceGraphic"
         id="feGaussianBlur2756" />
    </filter>
    <polygon
       id="path-42"
       points="0 0 11.3548387 0 11.3548387 11.5 0 12" />
    <filter
       x="-20.8%"
       y="-10.3%"
       width="141.5%"
       height="120.7%"
       filterUnits="objectBoundingBox"
       id="filter-44">
      <feGaussianBlur
         stdDeviation="1"
         in="SourceGraphic"
         id="feGaussianBlur2760" />
    </filter>
    <polygon
       id="path-45"
       points="10.8387097 0.086539977 20.6451613 1.08653998 19.0806452 11.58654 0 14.58654" />
    <filter
       x="-25.0%"
       y="-11.1%"
       width="150.0%"
       height="122.2%"
       filterUnits="objectBoundingBox"
       id="filter-47">
      <feGaussianBlur
         stdDeviation="1"
         in="SourceGraphic"
         id="feGaussianBlur2764" />
    </filter>
    <polygon
       id="path-48"
       points="10.8387097 0.708563895 20.6451613 1.70856389 19.5806452 10.7085639 0 15.2085639" />
    <filter
       x="-18.2%"
       y="-13.0%"
       width="136.3%"
       height="126.1%"
       filterUnits="objectBoundingBox"
       id="filter-50">
      <feGaussianBlur
         stdDeviation="1"
         in="SourceGraphic"
         id="feGaussianBlur2768" />
    </filter>
    <path
       d="M0.45,30.0517401 C12.83,14.5517401 38.45,0.0517400721 60.45,0.0517400721 L60.45,22.0517401"
       id="path-51" />
    <polygon
       id="path-53"
       points="18 8.55806015 32.5 0.0580601517 14 17.0580602 0 24.5580602" />
    <filter
       x="-27.3%"
       y="-7.7%"
       width="154.5%"
       height="115.4%"
       filterUnits="objectBoundingBox"
       id="filter-55">
      <feGaussianBlur
         stdDeviation="1"
         in="SourceGraphic"
         id="feGaussianBlur2773" />
    </filter>
    <polygon
       id="path-56"
       points="17.5 2.70751627 27 0.207516266 14 14.2075163 0 18.7075163" />
    <filter
       x="-25.0%"
       y="-7.7%"
       width="150.0%"
       height="115.4%"
       filterUnits="objectBoundingBox"
       id="filter-58">
      <feGaussianBlur
         stdDeviation="1"
         in="SourceGraphic"
         id="feGaussianBlur2777" />
    </filter>
    <polygon
       id="path-59"
       points="13.5 2.5 23 0.5 13 14.5 0 17" />
    <filter
       x="-25.0%"
       y="-7.7%"
       width="150.0%"
       height="115.4%"
       filterUnits="objectBoundingBox"
       id="filter-61">
      <feGaussianBlur
         stdDeviation="1"
         in="SourceGraphic"
         id="feGaussianBlur2781" />
    </filter>
    <polygon
       id="path-62"
       points="10.5 0.0517400721 18 1.05174007 18 10.5517401 0 14.5517401" />
    <filter
       x="-14.3%"
       y="-13.0%"
       width="128.6%"
       height="126.1%"
       filterUnits="objectBoundingBox"
       id="filter-64">
      <feGaussianBlur
         stdDeviation="1"
         in="SourceGraphic"
         id="feGaussianBlur2785" />
    </filter>
    <path
       d="M37.7,14.9 C35.1,27.9 26.7,32.9 23.2,33.5 C17.7,34.5 13.4,34.6 8.1,31.2 C-9.5,20 8.3,0.2 8.3,0.2 C12.2,24.7 31.5,10.8 31.5,10.8 L37.7,14.9 Z"
       id="path-65" />
    <path
       d="M37.7,14.9 C35.1,27.9 26.7,32.9 23.2,33.5 C17.7,34.5 13.4,34.6 8.1,31.2 C-9.5,20 8.3,0.2 8.3,0.2 C12.2,24.7 31.5,10.8 31.5,10.8 L37.7,14.9 Z"
       id="path-67" />
    <path
       d="M37.7,14.9 C35.1,27.9 26.7,32.9 23.2,33.5 C17.7,34.5 13.4,34.6 8.1,31.2 C-9.5,20 8.3,0.2 8.3,0.2 C12.2,24.7 31.5,10.8 31.5,10.8 L37.7,14.9 Z"
       id="path-69" />
    <path
       d="M37.7,14.9 C35.1,27.9 26.7,32.9 23.2,33.5 C17.7,34.5 13.4,34.6 8.1,31.2 C-9.5,20 8.3,0.2 8.3,0.2 C12.2,24.7 31.5,10.8 31.5,10.8 L37.7,14.9 Z"
       id="path-71" />
    <path
       d="M37.7,14.9 C35.1,27.9 26.7,32.9 23.2,33.5 C17.7,34.5 13.4,34.6 8.1,31.2 C-9.5,20 8.3,0.2 8.3,0.2 C12.2,24.7 31.5,10.8 31.5,10.8 L37.7,14.9 Z"
       id="path-73" />
    <path
       d="M37.9,14.7 C35.3,27.7 26.9,32.7 23.4,33.3 C17.9,34.3 13.6,34.4 8.3,31 C-9.3,19.8 8.5,0 8.5,0 C12.4,24.5 31.7,10.6 31.7,10.6 L37.9,14.7 Z"
       id="path-75" />
    <path
       d="M37.9,14.7 C35.3,27.7 26.9,32.7 23.4,33.3 C17.9,34.3 13.6,34.4 8.3,31 C-9.3,19.8 8.5,0 8.5,0 C12.4,24.5 31.7,10.6 31.7,10.6 L37.9,14.7 Z"
       id="path-77" />
    <path
       d="M37.9,14.7 C35.3,27.7 26.9,32.7 23.4,33.3 C17.9,34.3 13.6,34.4 8.3,31 C-9.3,19.8 8.5,0 8.5,0 C12.4,24.5 31.7,10.6 31.7,10.6 L37.9,14.7 Z"
       id="path-79" />
    <path
       d="M37.9,14.7 C35.3,27.7 26.9,32.7 23.4,33.3 C17.9,34.3 13.6,34.4 8.3,31 C-9.3,19.8 8.5,0 8.5,0 C12.4,24.5 31.7,10.6 31.7,10.6 L37.9,14.7 Z"
       id="path-81" />
    <path
       d="M37.9,14.7 C35.3,27.7 26.9,32.7 23.4,33.3 C17.9,34.3 13.6,34.4 8.3,31 C-9.3,19.8 8.5,0 8.5,0 C12.4,24.5 31.7,10.6 31.7,10.6 L37.9,14.7 Z"
       id="path-83" />
    <path
       d="M37.9,14.7 C35.3,27.7 26.9,32.7 23.4,33.3 C17.9,34.3 13.6,34.4 8.3,31 C-9.3,19.8 8.5,0 8.5,0 C12.4,24.5 31.7,10.6 31.7,10.6 L37.9,14.7 Z"
       id="path-85" />
    <path
       d="M37.9,14.7 C35.3,27.7 26.9,32.7 23.4,33.3 C17.9,34.3 13.6,34.4 8.3,31 C-9.3,19.8 8.5,0 8.5,0 C12.4,24.5 31.7,10.6 31.7,10.6 L37.9,14.7 Z"
       id="path-87" />
    <path
       d="M37.9,14.7 C35.3,27.7 26.9,32.7 23.4,33.3 C17.9,34.3 13.6,34.4 8.3,31 C-9.3,19.8 8.5,0 8.5,0 C12.4,24.5 31.7,10.6 31.7,10.6 L37.9,14.7 Z"
       id="path-89" />
    <path
       d="M37.9,14.7 C35.3,27.7 26.9,32.7 23.4,33.3 C17.9,34.3 13.6,34.4 8.3,31 C-9.3,19.8 8.5,0 8.5,0 C12.4,24.5 31.7,10.6 31.7,10.6 L37.9,14.7 Z"
       id="path-91" />
    <path
       d="M37.9,14.7 C35.3,27.7 26.9,32.7 23.4,33.3 C17.9,34.3 13.6,34.4 8.3,31 C-9.3,19.8 8.5,0 8.5,0 C12.4,24.5 31.7,10.6 31.7,10.6 L37.9,14.7 Z"
       id="path-93" />
    <path
       d="M37.9,14.7 C35.3,27.7 26.9,32.7 23.4,33.3 C17.9,34.3 13.6,34.4 8.3,31 C-9.3,19.8 8.5,0 8.5,0 C12.4,24.5 31.7,10.6 31.7,10.6 L37.9,14.7 Z"
       id="path-95" />
    <path
       d="M37.9,14.7 C35.3,27.7 26.9,32.7 23.4,33.3 C17.9,34.3 13.6,34.4 8.3,31 C-9.3,19.8 8.5,0 8.5,0 C12.4,24.5 31.7,10.6 31.7,10.6 L37.9,14.7 Z"
       id="path-97" />
    <path
       d="M23.9037008,36.8638921 C22.4786408,34.8616105 20.3496153,33.3717006 18.1765136,32.6496597 C17.8074017,32.5135518 17.4063294,32.4077338 17.0374265,32.3322056 C16.122898,32.105818 15.1764092,32 14.2299203,32 L9.76987084,32 C8.85555132,32 7.92514709,32.105818 6.99453404,32.3021124 L6.368903,32.4531686 L6.368903,32.4834585 C4.11976467,33.0880768 1.71583751,34.611817 0.096299173,36.8638921 L0,37 L24,37 L23.9037008,36.8638921 Z"
       id="path-99" />
    <filter
       x="-6.2%"
       y="-30.0%"
       width="112.5%"
       height="160.0%"
       filterUnits="objectBoundingBox"
       id="filter-100">
      <feOffset
         dx="0"
         dy="3"
         in="SourceAlpha"
         result="shadowOffsetInner1"
         id="feOffset2806" />
      <feComposite
         in="shadowOffsetInner1"
         in2="SourceAlpha"
         operator="arithmetic"
         k2="-1"
         k3="1"
         result="shadowInnerInner1"
         id="feComposite2808" />
      <feColorMatrix
         values="0 0 0 0 0.858072917   0 0 0 0 0.724339361   0 0 0 0 0.180868952  0 0 0 0.278354458 0"
         type="matrix"
         in="shadowInnerInner1"
         result="shadowMatrixInner1"
         id="feColorMatrix2810" />
      <feOffset
         dx="0"
         dy="1"
         in="SourceAlpha"
         result="shadowOffsetInner2"
         id="feOffset2812" />
      <feComposite
         in="shadowOffsetInner2"
         in2="SourceAlpha"
         operator="arithmetic"
         k2="-1"
         k3="1"
         result="shadowInnerInner2"
         id="feComposite2814" />
      <feColorMatrix
         values="0 0 0 0 0.858823529   0 0 0 0 0.709803922   0 0 0 0 0.274509804  0 0 0 0.248716128 0"
         type="matrix"
         in="shadowInnerInner2"
         result="shadowMatrixInner2"
         id="feColorMatrix2816" />
      <feMerge
         id="feMerge2822">
        <feMergeNode
           in="shadowMatrixInner1"
           id="feMergeNode2818" />
        <feMergeNode
           in="shadowMatrixInner2"
           id="feMergeNode2820" />
      </feMerge>
    </filter>
    <path
       d="M23.9037008,36.8638921 C22.4786408,34.8616105 20.3496153,33.3717006 18.1765136,32.6496597 C17.8074017,32.5135518 17.4063294,32.4077338 17.0374265,32.3322056 C16.122898,32.105818 15.1764092,32 14.2299203,32 L9.76987084,32 C8.85555132,32 7.92514709,32.105818 6.99453404,32.3021124 L6.368903,32.4531686 L6.368903,32.4834585 C4.11976467,33.0880768 1.71583751,34.611817 0.096299173,36.8638921 L0,37 L24,37 L23.9037008,36.8638921 Z"
       id="path-101" />
    <filter
       x="-6.2%"
       y="-30.0%"
       width="112.5%"
       height="160.0%"
       filterUnits="objectBoundingBox"
       id="filter-102">
      <feOffset
         dx="0"
         dy="3"
         in="SourceAlpha"
         result="shadowOffsetInner1"
         id="feOffset2826" />
      <feComposite
         in="shadowOffsetInner1"
         in2="SourceAlpha"
         operator="arithmetic"
         k2="-1"
         k3="1"
         result="shadowInnerInner1"
         id="feComposite2828" />
      <feColorMatrix
         values="0 0 0 0 0.858072917   0 0 0 0 0.724339361   0 0 0 0 0.180868952  0 0 0 0.278354458 0"
         type="matrix"
         in="shadowInnerInner1"
         result="shadowMatrixInner1"
         id="feColorMatrix2830" />
      <feOffset
         dx="0"
         dy="1"
         in="SourceAlpha"
         result="shadowOffsetInner2"
         id="feOffset2832" />
      <feComposite
         in="shadowOffsetInner2"
         in2="SourceAlpha"
         operator="arithmetic"
         k2="-1"
         k3="1"
         result="shadowInnerInner2"
         id="feComposite2834" />
      <feColorMatrix
         values="0 0 0 0 0.858823529   0 0 0 0 0.709803922   0 0 0 0 0.274509804  0 0 0 0.248716128 0"
         type="matrix"
         in="shadowInnerInner2"
         result="shadowMatrixInner2"
         id="feColorMatrix2836" />
      <feMerge
         id="feMerge2842">
        <feMergeNode
           in="shadowMatrixInner1"
           id="feMergeNode2838" />
        <feMergeNode
           in="shadowMatrixInner2"
           id="feMergeNode2840" />
      </feMerge>
    </filter>
    <linearGradient
       inkscape:collect="always"
       xlink:href="#linearGradient-6"
       id="linearGradient8043"
       gradientUnits="userSpaceOnUse"
       x1="62.474591"
       y1="43.85577"
       x2="48.246469"
       y2="-1.3390799" />
    <linearGradient
       inkscape:collect="always"
       xlink:href="#linearGradient-7"
       id="linearGradient8045"
       gradientUnits="userSpaceOnUse"
       gradientTransform="scale(2.203738,0.45377444)"
       x1="28.134015"
       y1="260.93651"
       x2="28.134015"
       y2="206.53316" />
    <linearGradient
       inkscape:collect="always"
       xlink:href="#linearGradient-24"
       id="linearGradient8051"
       gradientUnits="userSpaceOnUse"
       gradientTransform="scale(1.5491933,0.64549722)"
       x1="25.029582"
       y1="68.176114"
       x2="27.681998"
       y2="72.79207" />
  </defs>
  <g
     id="KidsEdu"
     stroke="none"
     stroke-width="1"
     fill="none"
     fill-rule="evenodd"
     transform="translate(-1012.9186,102.66067)">
    <g
       id="coolmonster"
       transform="translate(1018)"
       fill-rule="nonzero">
      <path
         d="m 122.02228,69.26583 c 0,4.30387 0.60646,66.15152 -0.0948,70.2295 -5.38626,31.16144 -30.390521,-4.86861 -60.42746,-4.86861 -29.571388,0 -54.2692123,36.74935 -60.1622748,6.30125 C 0.45965887,136.40415 0,72.119548 0,67.310389 0,30.133035 27.532388,0 61.5,0 c 33.961719,0 60.52228,32.088476 60.52228,69.26583 z"
         id="imagebot_25"
         fill="#eb7331"
         sodipodi:nodetypes="scscsss" />
      <path
         d="M 98,43.504009 C 98,61.999761 82.999761,77 64.504009,77 46.000239,77 31,61.999761 31,43.504009 31,25.000239 46.000239,10 64.504009,10 82.999761,10 98,25.000239 98,43.504009 Z"
         id="imagebot_23"
         fill="url(#linearGradient-6)"
         style="fill:url(#linearGradient-6)" />
      <path
         d="M 87,42.002752 C 87,54.701328 76.701328,65 64.002752,65 51.298672,65 41,54.701328 41,42.002752 41,29.298672 51.298672,19 64.002752,19 76.701328,19 87,29.298672 87,42.002752 Z"
         id="imagebot_22"
         stroke-opacity="0.312801"
         stroke="#000000"
         fill="#ffffff"
         style="fill:#ff0000" />
      <path
         d="M 75,42.001316 C 75,48.074548 70.074548,53 64.001316,53 57.925452,53 53,48.074548 53,42.001316 53,35.925452 57.925452,31 64.001316,31 70.074548,31 75,35.925452 75,42.001316 Z"
         id="imagebot_21"
         fill="#2e3436" />
      <path
         d="M 72,38.500419 C 72,40.432811 70.432811,42 68.500419,42 66.567189,42 65,40.432811 65,38.500419 65,36.567189 66.567189,35 68.500419,35 70.432811,35 72,36.567189 72,38.500419 Z"
         id="imagebot_20"
         fill="#ffffff" />
      <path
         d="M 107.5,95.459148 C 96.784386,82.629756 61.485995,88.330112 36.813792,92.423386 28.198372,93.852738 20.911669,95.064104 16.5,95.156848 v 6.326012 c 0,0.35216 0.155546,0.71139 0.515109,1.05139 0.273166,0.2583 0.676361,0.51293 1.203201,0.75095 0.979534,0.44254 2.41415,0.84439 4.198202,1.17774 3.425072,0.63997 8.160158,1.03706 13.407017,1.03706 h 52.352942 c 5.246859,0 9.981945,-0.39709 13.407019,-1.03706 1.78405,-0.33335 3.21867,-0.7352 4.1982,-1.17774 0.52684,-0.23802 0.93004,-0.49265 1.2032,-0.75095 0.35956,-0.34 0.51511,-0.69923 0.51511,-1.05139 z"
         id="imagebot_18"
         stroke-opacity="0.325885"
         stroke="#000000"
         fill="url(#linearGradient-7)"
         style="fill:url(#linearGradient-7)" />
      <path
         d="M 38.391364,92 C 33.876818,92.76 29.699091,93.460157 26.017727,94.016693 26.005909,94.154331 26,94.291968 26,94.429606 V 106.60157 C 26,109.03118 27.577727,111 29.545455,111 h 5.909091 C 37.422273,111 39,109.03118 39,106.60157 V 94.429606 C 39,93.525984 38.769545,92.694173 38.391364,92 Z"
         id="imagebot_17"
         stroke-opacity="0.312719"
         stroke="#000000"
         fill="#ffffff" />
      <path
         d="m 60,97 c -8.667242,0 -15.838108,3.4736 -17,8 h 34 c -1.161892,-4.5264 -8.332758,-8 -17,-8 z"
         id="imagebot_16"
         fill="#2e3436" />
      <path
         d="m 79.456818,87.001381 c -1.128636,0 -2.280909,0.01784 -3.433182,0.05351 C 76.005909,87.215425 76,87.375957 76,87.53649 V 99.653728 C 76,102.06172 77.601364,104 79.569091,104 h 5.885454 C 87.422273,104 89,102.06172 89,99.653728 V 87.53649 87.482979 c -2.99,-0.344848 -6.198636,-0.499435 -9.543182,-0.481598 z"
         id="imagebot_15"
         stroke-opacity="0.312719"
         stroke="#000000"
         fill="#ffffff" />
      <path
         d="m 21.999766,19.5 c 0.01454,1.245598 -0.649317,2.402777 -1.738123,3.029762 -1.088806,0.626984 -2.43448,0.626984 -3.523286,0 -1.088806,-0.626985 -1.75266,-1.784164 -1.738123,-3.029762 -0.01454,-1.245598 0.649317,-2.402777 1.738123,-3.029762 1.088806,-0.626984 2.43448,-0.626984 3.523286,0 1.088806,0.626985 1.75266,1.784164 1.738123,3.029762 z"
         id="imagebot_12"
         fill="#eb7331" />
      <path
         d="M 16,28.5 C 16,30.432997 14.432997,32 12.5,32 10.567003,32 9,30.432997 9,28.5 9,26.567003 10.567003,25 12.5,25 c 1.932997,0 3.5,1.567003 3.5,3.5 z"
         id="imagebot_11"
         fill="#eb7331" />
      <path
         d="m 22.793718,23 c 0.08913,0.298279 0.148557,0.602294 0.148557,0.929254 0,1.904398 -1.59253,3.458891 -3.565365,3.458891 -0.909168,0 -1.747029,-0.338432 -2.37691,-0.877629 C 17.427844,27.950287 18.788625,29 20.416808,29 22.389643,29 24,27.462715 24,25.558317 24,24.537285 23.53056,23.630975 22.793718,23 Z"
         id="imagebot_10"
         fill="#d9581e" />
      <path
         d="m 16.140244,33 c 0.06097,0.197802 0.103658,0.401099 0.103658,0.620879 0,1.269231 -1.134146,2.307692 -2.542682,2.307692 -0.65244,0 -1.25,-0.225274 -1.70122,-0.587912 C 12.304878,36.302198 13.280488,37 14.439024,37 15.853659,37 17,35.978022 17,34.708791 17,34.021978 16.664634,33.417582 16.140244,33 Z"
         id="imagebot_9"
         fill="#d9581e" />
      <path
         d="m 107,15.5 c 0,1.932997 -1.567,3.5 -3.5,3.5 -1.933,0 -3.5,-1.567003 -3.5,-3.5 0,-1.932997 1.567,-3.5 3.5,-3.5 1.933,0 3.5,1.567003 3.5,3.5 z"
         id="imagebot_8"
         fill="#eb7331"
         transform="matrix(-1,0,0,1,207,0)" />
      <path
         d="m 112,24.5 c 0,1.932997 -1.567,3.5 -3.5,3.5 -1.933,0 -3.5,-1.567003 -3.5,-3.5 0,-1.932997 1.567,-3.5 3.5,-3.5 1.933,0 3.5,1.567003 3.5,3.5 z"
         id="imagebot_7"
         fill="#eb7331"
         transform="matrix(-1,0,0,1,217,0)" />
      <path
         d="m 99.381818,21 c -0.10303,0.297994 -0.169697,0.60745 -0.169697,0.934097 0,1.902579 1.818179,3.455588 4.072729,3.455588 1.03636,0 1.99394,-0.338109 2.71515,-0.876791 C 105.50909,25.951289 103.95758,27 102.09697,27 99.842424,27 98,25.464183 98,23.561605 98,22.541547 98.539394,21.630372 99.381818,21 Z"
         id="imagebot_6"
         fill="#d9581e" />
      <path
         d="m 106.85976,27 c -0.061,0.203018 -0.10366,0.406036 -0.10366,0.620027 0,1.272977 1.14024,2.304527 2.54878,2.304527 0.64634,0 1.2439,-0.224966 1.69512,-0.581619 C 110.69512,30.297668 109.72561,31 108.56098,31 107.15244,31 106,29.973937 106,28.706447 106,28.026063 106.33537,27.422497 106.85976,27 Z"
         id="imagebot_5"
         fill="#d9581e" />
      <path
         d="m 118,33.5 c 0,1.932997 -1.567,3.5 -3.5,3.5 -1.933,0 -3.5,-1.567003 -3.5,-3.5 0,-1.932997 1.567,-3.5 3.5,-3.5 1.933,0 3.5,1.567003 3.5,3.5 z"
         id="imagebot_4"
         fill="#eb7331"
         transform="matrix(-1,0,0,1,229,0)" />
      <path
         d="m 109.20628,37 c -0.0891,0.303725 -0.14855,0.60745 -0.14855,0.934097 0,1.902579 1.59253,3.455588 3.56536,3.455588 0.90917,0 1.74703,-0.338109 2.37691,-0.876791 C 114.57216,41.951289 113.21138,43 111.58319,43 109.61036,43 108,41.464183 108,39.561605 108,38.541547 108.46944,37.636103 109.20628,37 Z"
         id="imagebot_3"
         fill="#d9581e" />
    </g>
  </g>
  <g
     transform="translate(-823.24079,101.68295)"
     fill-rule="evenodd"
     fill="none"
     stroke-width="1"
     stroke="none"
     id="g8039">
    <g
       fill-rule="nonzero"
       transform="translate(1018)"
       id="g6405">
      <path
         fill="#eb7331"
         id="path6367"
         d="m 123,67.310389 c 0,4.30387 -0.37126,68.106961 -1.07254,72.184941 -5.38626,31.16144 -30.390521,-4.86861 -60.42746,-4.86861 -29.571388,0 -54.2692123,36.74935 -60.1622748,6.30125 C 0.45965887,136.40415 0,72.119548 0,67.310389 0,30.133035 27.532388,0 61.5,0 95.461719,0 123,30.133035 123,67.310389 Z" />
      <path
         style="fill:url(#linearGradient8043)"
         fill="url(#linearGradient-6)"
         id="path6369"
         d="M 98,43.504009 C 98,61.999761 82.999761,77 64.504009,77 46.000239,77 31,61.999761 31,43.504009 31,25.000239 46.000239,10 64.504009,10 82.999761,10 98,25.000239 98,43.504009 Z" />
      <path
         fill="#ffffff"
         stroke="#000000"
         stroke-opacity="0.312801"
         id="path6371"
         d="M 87,42.002752 C 87,54.701328 76.701328,65 64.002752,65 51.298672,65 41,54.701328 41,42.002752 41,29.298672 51.298672,19 64.002752,19 76.701328,19 87,29.298672 87,42.002752 Z"
         style="fill:#de8787" />
      <path
         fill="#2e3436"
         id="path6373"
         d="M 75,42.001316 C 75,48.074548 70.074548,53 64.001316,53 57.925452,53 53,48.074548 53,42.001316 53,35.925452 57.925452,31 64.001316,31 70.074548,31 75,35.925452 75,42.001316 Z" />
      <path
         fill="#ffffff"
         id="path6375"
         d="M 72,38.500419 C 72,40.432811 70.432811,42 68.500419,42 66.567189,42 65,40.432811 65,38.500419 65,36.567189 66.567189,35 68.500419,35 70.432811,35 72,36.567189 72,38.500419 Z" />
      <path
         style="fill:url(#linearGradient8045)"
         fill="url(#linearGradient-7)"
         stroke="#000000"
         stroke-opacity="0.325885"
         id="path6377"
         d="M 107.5,95.459148 C 96.784386,82.629756 61.485995,88.330112 36.813792,92.423386 28.198372,93.852738 20.911669,95.064104 16.5,95.156848 v 6.326012 c 0,0.35216 0.155546,0.71139 0.515109,1.05139 0.273166,0.2583 0.676361,0.51293 1.203201,0.75095 0.979534,0.44254 2.41415,0.84439 4.198202,1.17774 3.425072,0.63997 8.160158,1.03706 13.407017,1.03706 h 52.352942 c 5.246859,0 9.981945,-0.39709 13.407019,-1.03706 1.78405,-0.33335 3.21867,-0.7352 4.1982,-1.17774 0.52684,-0.23802 0.93004,-0.49265 1.2032,-0.75095 0.35956,-0.34 0.51511,-0.69923 0.51511,-1.05139 z" />
      <path
         fill="#ffffff"
         stroke="#000000"
         stroke-opacity="0.312719"
         id="path6379"
         d="M 38.391364,92 C 33.876818,92.76 29.699091,93.460157 26.017727,94.016693 26.005909,94.154331 26,94.291968 26,94.429606 V 106.60157 C 26,109.03118 27.577727,111 29.545455,111 h 5.909091 C 37.422273,111 39,109.03118 39,106.60157 V 94.429606 C 39,93.525984 38.769545,92.694173 38.391364,92 Z"
         style="fill:#ffffff" />
      <path
         fill="#2e3436"
         id="path6381"
         d="m 60,97 c -8.667242,0 -15.838108,3.4736 -17,8 h 34 c -1.161892,-4.5264 -8.332758,-8 -17,-8 z" />
      <path
         fill="#ffffff"
         stroke="#000000"
         stroke-opacity="0.312719"
         id="path6383"
         d="m 79.456818,87.001381 c -1.128636,0 -2.280909,0.01784 -3.433182,0.05351 C 76.005909,87.215425 76,87.375957 76,87.53649 V 99.653728 C 76,102.06172 77.601364,104 79.569091,104 h 5.885454 C 87.422273,104 89,102.06172 89,99.653728 V 87.53649 87.482979 c -2.99,-0.344848 -6.198636,-0.499435 -9.543182,-0.481598 z"
         style="fill:#ffffff" />
      <path
         fill="#eb7331"
         id="path6385"
         d="m 21.999766,19.5 c 0.01454,1.245598 -0.649317,2.402777 -1.738123,3.029762 -1.088806,0.626984 -2.43448,0.626984 -3.523286,0 -1.088806,-0.626985 -1.75266,-1.784164 -1.738123,-3.029762 -0.01454,-1.245598 0.649317,-2.402777 1.738123,-3.029762 1.088806,-0.626984 2.43448,-0.626984 3.523286,0 1.088806,0.626985 1.75266,1.784164 1.738123,3.029762 z" />
      <path
         fill="#eb7331"
         id="path6387"
         d="M 16,28.5 C 16,30.432997 14.432997,32 12.5,32 10.567003,32 9,30.432997 9,28.5 9,26.567003 10.567003,25 12.5,25 c 1.932997,0 3.5,1.567003 3.5,3.5 z" />
      <path
         fill="#d9581e"
         id="path6389"
         d="m 22.793718,23 c 0.08913,0.298279 0.148557,0.602294 0.148557,0.929254 0,1.904398 -1.59253,3.458891 -3.565365,3.458891 -0.909168,0 -1.747029,-0.338432 -2.37691,-0.877629 C 17.427844,27.950287 18.788625,29 20.416808,29 22.389643,29 24,27.462715 24,25.558317 24,24.537285 23.53056,23.630975 22.793718,23 Z" />
      <path
         fill="#d9581e"
         id="path6391"
         d="m 16.140244,33 c 0.06097,0.197802 0.103658,0.401099 0.103658,0.620879 0,1.269231 -1.134146,2.307692 -2.542682,2.307692 -0.65244,0 -1.25,-0.225274 -1.70122,-0.587912 C 12.304878,36.302198 13.280488,37 14.439024,37 15.853659,37 17,35.978022 17,34.708791 17,34.021978 16.664634,33.417582 16.140244,33 Z" />
      <path
         transform="matrix(-1,0,0,1,207,0)"
         fill="#eb7331"
         id="path6393"
         d="m 107,15.5 c 0,1.932997 -1.567,3.5 -3.5,3.5 -1.933,0 -3.5,-1.567003 -3.5,-3.5 0,-1.932997 1.567,-3.5 3.5,-3.5 1.933,0 3.5,1.567003 3.5,3.5 z" />
      <path
         transform="matrix(-1,0,0,1,217,0)"
         fill="#eb7331"
         id="path6395"
         d="m 112,24.5 c 0,1.932997 -1.567,3.5 -3.5,3.5 -1.933,0 -3.5,-1.567003 -3.5,-3.5 0,-1.932997 1.567,-3.5 3.5,-3.5 1.933,0 3.5,1.567003 3.5,3.5 z" />
      <path
         fill="#d9581e"
         id="path6397"
         d="m 99.381818,21 c -0.10303,0.297994 -0.169697,0.60745 -0.169697,0.934097 0,1.902579 1.818179,3.455588 4.072729,3.455588 1.03636,0 1.99394,-0.338109 2.71515,-0.876791 C 105.50909,25.951289 103.95758,27 102.09697,27 99.842424,27 98,25.464183 98,23.561605 98,22.541547 98.539394,21.630372 99.381818,21 Z" />
      <path
         fill="#d9581e"
         id="path6399"
         d="m 106.85976,27 c -0.061,0.203018 -0.10366,0.406036 -0.10366,0.620027 0,1.272977 1.14024,2.304527 2.54878,2.304527 0.64634,0 1.2439,-0.224966 1.69512,-0.581619 C 110.69512,30.297668 109.72561,31 108.56098,31 107.15244,31 106,29.973937 106,28.706447 106,28.026063 106.33537,27.422497 106.85976,27 Z" />
      <path
         transform="matrix(-1,0,0,1,229,0)"
         fill="#eb7331"
         id="path6401"
         d="m 118,33.5 c 0,1.932997 -1.567,3.5 -3.5,3.5 -1.933,0 -3.5,-1.567003 -3.5,-3.5 0,-1.932997 1.567,-3.5 3.5,-3.5 1.933,0 3.5,1.567003 3.5,3.5 z" />
      <path
         fill="#d9581e"
         id="path6403"
         d="m 109.20628,37 c -0.0891,0.303725 -0.14855,0.60745 -0.14855,0.934097 0,1.902579 1.59253,3.455588 3.56536,3.455588 0.90917,0 1.74703,-0.338109 2.37691,-0.876791 C 114.57216,41.951289 113.21138,43 111.58319,43 109.61036,43 108,41.464183 108,39.561605 108,38.541547 108.46944,37.636103 109.20628,37 Z" />
    </g>
    <g
       transform="translate(208,197)"
       id="g6483" />
  </g>
</svg>
